/* XPM */
static char *ec2b546ecc8d446b98ed760e637b4b20NTQuhTZtNROVUpL6[] = {
/* columns rows colors chars-per-pixel */
"64 64 219 2 ",
"   c #1B1410",
".  c #15371B",
"X  c #2E3218",
"o  c #193D22",
"O  c #2D3724",
"+  c #513B11",
"@  c #4A3E33",
"#  c #0D450D",
"$  c #005800",
"%  c #0D5F0D",
"&  c #164F1C",
"*  c #007A00",
"=  c #0F6C15",
"-  c #044A2A",
";  c #1C5826",
":  c #005933",
">  c #275D39",
",  c #0C792D",
"<  c #006B3C",
"1  c #6A4617",
"2  c #784D16",
"3  c #5E572A",
"4  c #2A5545",
"5  c #2D5849",
"6  c #345E52",
"7  c #007547",
"8  c #007D42",
"9  c #366F5A",
"0  c #615340",
"q  c #517653",
"w  c #78684E",
"e  c #46736E",
"r  c #9B0B10",
"t  c #991717",
"y  c #A1080E",
"u  c #A40B12",
"i  c #AD0B13",
"p  c #B40611",
"a  c #BC0814",
"s  c #A41317",
"d  c #A5171B",
"f  c #A9141A",
"g  c #BB141D",
"h  c #8E2219",
"j  c #A61D20",
"k  c #B01921",
"l  c #943320",
"z  c #A82326",
"x  c #AB252A",
"c  c #B9262D",
"v  c #AE2E32",
"b  c #B13337",
"n  c #BB3337",
"m  c #B43438",
"M  c #B4393D",
"N  c #C50E1A",
"B  c #CC1622",
"V  c #D81B27",
"C  c #D2252E",
"Z  c #C82730",
"A  c #CC2F36",
"S  c #D22E36",
"D  c #DC2B34",
"F  c #C43036",
"G  c #C2393E",
"H  c #D6333B",
"J  c #E2232D",
"K  c #E62731",
"L  c #EA2B35",
"P  c #F02E37",
"I  c #E2353E",
"U  c #F6323B",
"Y  c #875617",
"T  c #895916",
"R  c #95631C",
"E  c #914C2A",
"W  c #976937",
"Q  c #9B6B35",
"!  c #997036",
"~  c #AA762A",
"^  c #C93F46",
"/  c #DC3C44",
"(  c #E83B44",
")  c #F73941",
"_  c #F63B44",
"`  c #B64144",
"'  c #B94B4E",
"]  c #B85659",
"[  c #8D7A56",
"{  c #A17D45",
"}  c #AF714F",
"|  c #807367",
" . c #AE7272",
".. c #D1434A",
"X. c #D7575B",
"o. c #E9484F",
"O. c #F4444C",
"+. c #FB454D",
"@. c #FD4D54",
"#. c #FD5259",
"$. c #F6595B",
"%. c #CC6C5D",
"&. c #E4645E",
"*. c #EB5F67",
"=. c #F55B62",
"-. c #FE5B62",
";. c #CF6C6F",
":. c #F6676A",
">. c #ED7071",
",. c #0A8F0A",
"<. c #00A500",
"1. c #00AD00",
"2. c #00BC00",
"3. c #0AB00B",
"4. c #00BA0D",
"5. c #00AD18",
"6. c #00B516",
"7. c #009A28",
"8. c #008938",
"9. c #009232",
"0. c #2C9E31",
"q. c #08A826",
"w. c #4AB33C",
"e. c #00C500",
"r. c #00C900",
"t. c #0AC90A",
"y. c #17C819",
"u. c #2EC72E",
"i. c #43CB38",
"p. c #33925D",
"a. c #779556",
"s. c #58AC4D",
"d. c #73AA54",
"f. c #4E966C",
"g. c #6C9468",
"h. c #4AAC68",
"j. c #73AE73",
"k. c #38C455",
"l. c #51C74A",
"z. c #5DC66A",
"x. c #BC8730",
"c. c #CD9637",
"v. c #D9A138",
"b. c #A9874B",
"n. c #AF8F50",
"m. c #B28E54",
"M. c #B39453",
"N. c #B79957",
"B. c #BB9D5B",
"V. c #BDA15D",
"C. c #948E6B",
"Z. c #B39371",
"A. c #8CA167",
"S. c #C0A35F",
"D. c #CF9072",
"F. c #C7AA67",
"G. c #D0AB6B",
"H. c #CEB371",
"J. c #D3B778",
"K. c #D8BC7B",
"L. c #99CD74",
"P. c #567D88",
"I. c #D57E84",
"U. c #F77D83",
"Y. c #6A968E",
"T. c #6C8BAC",
"R. c #62C58A",
"E. c #7D9FC9",
"W. c #A69395",
"Q. c #86AD94",
"!. c #B6AD89",
"~. c #A0A39D",
"^. c #AFADAD",
"/. c #CA8C8B",
"(. c #F58B91",
"). c #CFBC88",
"_. c #E5B890",
"`. c #CA9EA7",
"'. c #F99DA1",
"]. c #CCB3B9",
"[. c #F3AEB2",
"{. c #9FCB9A",
"}. c #DDC181",
"|. c #D2C794",
" X c #E2C686",
".X c #E7CB8A",
"XX c #EBCF8F",
"oX c #EFD393",
"OX c #EAD59E",
"+X c #F3D797",
"@X c #F5DA9A",
"#X c #F8DD9D",
"$X c #F9DFA1",
"%X c #FCE4A5",
"&X c #FEEAAD",
"*X c #FEEDB2",
"=X c #90AFD3",
"-X c #8FB5E6",
";X c #93BCED",
":X c #D7BFC7",
">X c #CACDD4",
",X c #C3D3DD",
"<X c #F0CED1",
"1X c #CBDAE5",
"2X c #CFDEE9",
"3X c #DFE2E7",
"4X c #D3E2EC",
"5X c #D8E5EF",
"6X c #DCEAF3",
"7X c #F4E5E6",
"8X c #E0EDF6",
"9X c #EFEFF0",
"0X c #E1EFF8",
"qX c #E5F2FA",
"wX c #E9F5FB",
"eX c #EDF9FD",
"rX c #F5F4F5",
"tX c #F5FCFE",
"yX c #FBFEFF",
/* pixels */
";X;X;X;X-XP.; $ $ $ $ $ $ $ $ $ $ $ $ $ % P.% $ = > a.Z.U.>.:.-.-.:.:.U.D.C.> = $ $ 9 9 $ $ $ $ $ $ $ $ $ $ $ $ $ $ 6 T.-X-X-X;X",
";X;X-XT.> ,.1.e.e.e.e.e.e.e.e.e.e.e.e.e.t.R.u.d.M.$.#.+.+.+.@.+.+.+._ _ _ _ $.:.A.u.k.k.r.r.r.r.r.e.e.e.e.e.e.e.e.e.<., e E.;X;X",
";X-XY.* 1.r.r.e.r.r.r.r.r.r.r.r.e.e.e.t.s.D.:.@.#.#.$.>.(.[.[.[.[.[.'.(.:.+.U U ) +.>.j.r.r.r.r.r.r.r.r.r.r.r.r.r.r.r.e.<.9 =X-X",
";XT., e.r.r.r.r.r.r.4.4.4.4.r.r.e.t.i.m.$.@.@.$.(.[.<XyXtXtXtXeXtXtXeXeX9X7X[.>._ U U ) &.w.t.r.r.r.e.4.4.4.e.r.r.r.r.r.r.<.6 -X",
"-X9 <.r.r.r.e.e.4.7.8.8 8 , 7.4.u.M.$.@.@.#.'.<XrXyXtXtXtXtXtXtXtXeXeXeXeXeXeX0X<XU.o.) U ) } i.e.5.8.8 8 8 9.6.e.r.e.r.r.e., T.",
"T.= e.r.r.r.e.5.8.7 < - . . : g.&.#.@.@.U.<XyXyXyXyXyXtXtXtXtXeXtXeXtXeXeXeXwXwXwX0X:X:.U U U o.C.< o . . : < 8 9.4.r.e.r.r.<.4 ",
"6 <.e.r.e.r.q.8 < o X 1 2 2 %.#.#.#.#.'.rXyXyXyXyXtXtXyXtXyXtXtXtXeXeXeXeXeXwXwXqX0X0X3X(.) P U I %.2 Y 2 + o - 7 8.4.e.e.r.e.* ",
"4 <.e.r.r.5.8 < o 1 Y T ! &.#.#.#.#.[.yXyXyXyXyXyXyXyXtXtXtXtXtXtXtXeXeXeXwXwXwX0X0X0X6X5X[._ P P P X.} T Y 2 + - 7 9.e.r.r.r.* ",
"4 1.r.r.4.8.7 & 2 Y T ~ =.#.@.@.#.[.yXyXyXyXyXyXyXyXyXtXtXyXtXtXtXtXeXeXeXeXwXwXqXqX0X0X6X6X[.I P P L o.%.T T Y + - 8 5.e.r.r.* ",
"4 1.r.r.7.7 - + Y R B.:.#.#.@.#.'.yXyXyXyXyXyXyXyXyXyXyXyXtXtXtXtXeXtXtXeXwXwXwXqXqXqX6XqX6X5X'.U P P I o.D.~ T 2 O < 8 6.r.r.* ",
"4 1.e.e.9.: + 2 T x.:.#.#.#.#.>.rXyXyXyXyXyXyXyXyXyXyXtXtXtXyXtXtXtXeXeXeXeXwXwXqXqX0X0X6X6X6X3X&.P P L I X.G.R T 2 o 7 5.r.r.* ",
"4 1.e.e.9.- 1 T W =.#.#.#.#.-.<XyXyXyXyXyXyXyXyXyXyXyXyXtXyXtXtXtXtXtXeXeXwXwXwXqXqX0X6X6X6X6X6X:XU P L L I X.} T T X < 5.r.r.* ",
"4 1.r.r.9.- 1 T &.#.#.@.#.#.(.rXyXyXyXyXyXyXyXyXyXyXyXyXtXyXtXtXtXeXtXeXeXeXwXwXqXqX0X6X6X6X5X5X4X:.P L L / / %.R T X < 5.r.r.* ",
"4 1.r.r.7.: + %.$.@.@.@.#.#.<XyXyXyXyXyXyXyXyXyXyXyXyXyXyXtXtXtXtXtXeXeXeXeXwXwXqXqX0XqX6X6X6X4X4X].P L L L / / ;.2 o 8.4.r.r.* ",
"4 1.r.r.4.8.w =.#.#.#.#.@.:.7XyXyXyXyXyXyXyXyXyXyXyXyXyXtXtXtXtXeXeXeXtXeXwXwXqX0X0X6X6X6X6X6X4X5X>XO.K L L / / ..C.: 7.r.r.r.* ",
"4 1.r.r.r.7.;.#.#.@.#.#.#.(.rXyXyXyXyXyXyXyXyXyXyXyXyXtXtXtXtXtXtXtXeXeXeXwXwXqXqX0X0X6X6X6X5X4X4X1X=.L K L D / ..] p.4.r.r.r.* ",
"4 1.r.r.r.s.#.@.@.@.#.-.-.'.tXyXyXyXyXyXyXyXyXyXyXyXyXtXyXtXtXtXeXtXeXeXeXwXqX0X0X0X6X6X6X5X4X4X2X2X>.K K K D D ^ ^ W.4.r.r.r.* ",
"4 1.r.r.e.Z.+.@.@.@.#.-.-.'.yXyXyXyXyXyXyXyXyXyXyXyXtXtXtXtXtXtXtXeXeXeXwXwXqX0X0X6X6X6X5X5X4X4X2X1XI.K K D D / S ^ ] z.r.r.r.* ",
"4 1.r.r.q.=.@.@.#.#.#.-.-.[.yXyXyXyXyXyXyXyXyXyXyXyXtXtXtXtXtXeXeXeXeXqXwXqX0X0X0X6X6X5X5X4X2X2X2X2X;.L K K S S Z ^ ` ~.y.r.r.* ",
"4 1.r.r.g.@.@.+.#.#.#.-.-.'.tXyXyXyXyXyXyXyXyXyXyXtXtXtXtXtXtXeXeXeXeXeXqXqX0X8X0X6X6X5X5X4X2X1X1X2X;.K D D D S A ^ G  .z.r.r.* ",
"e q.u.u.W.@.@.@.@.#.#.-.:.(.rXyXyXyXyXyXyXyXyXyXtXyXtXtXtXtXeXeXeXeXqXwX0X0X0X8X6X6X5X5X4X4X2X1X1X,XX.J J D S A F n n ] ^.k.u.8.",
"T.h.z.k.#.@.@.+.#.#.#.-.-.:.7XyXtXyXtXyXyXyXtXtXtXtXtXtXeXeXeXwXeXqXqXqX0X0X0X8X6X6X5X4X2X2X2X1X1X]./ D D D S A F n n ` ~.{.h.f.",
"5 4.r.u.+.@.@.@.#.#.#.-.-.:.<XrXtXtXtXyXtXtXyXtXtXeXtXtXeXeXeXwXwXeXqX0X0X0X6X6X6X5X4X4X2X1X1X1X,X`.D D D S A F F n n m W.{.u.,.",
"4 1.r./.O.@.@.@.#.#.#.-.:.-.(.rXtXtXtXyXtXtXtXtXtXtXeXeXeXeXwXwX0XqX0X0X0X6X6X6X4X4X4X2X1X1X1X,X,X;.D D S Z A F n n b v  .=Xl.,.",
"4 1.r.U.O.@.@.@.#.#.#.-.-.-.:.<XtXtXtXtXtXtXtXtXeXeXeXeXeXwXqXqX0X0X8X6X8X6X5X5X4X4X2X2X1X1X,X,X`./ D D S A F F n n m m ] ^.z.9.",
"4 1.t.*.O.O.@.#.#.#.#.#.-.-.-.(.9XtXtXtXeXtXeXeXeXeXeXwXwXqXqXqX0X0X8X6X5X5X4X4X2X2X2X1X,X,X,X,X;.D / S A F F n n m b m ` W.L.0.",
"5 1.l.o.O.@.@.@.#.#.#.#.#.-.-.-.[.wXeXeXeXeXeXeXwXwXwXqXqXqX0X0X8X6X6X5X5X4X4X4X2X1X,X,X,X,X,X/./ S S A F F n n m m b m b W.Q.f.",
"5 2.A.o.O.@.@.@.#.#.#.#.#.#.#.#.-.<XwXeXwXwXwXwXwXqXqX6X0X0X6X6X6X5X5X4X4X2X2X2X1X1X1X,X,X,X`./ / S A F F n n m m b b m M  .^.j.",
"4 1.Z.O.O.@.@.@.@.#.#.#.@.#.#.#.@.-.<X9XqXqXwXqX0X0X6X0X6X6X5X5X5X4X4X2X2X2X1X1X,X,X,X,X,X`.^ / C A F F n n m m b b b m M  .~.Y.",
"4 3.D.O.O.O.@.@.@.@.@.@.@.@.@.@.@.@.#.[.8X0X6X6X6X6X6X6X6X5X4X4X4X4X2X1X1X1X1X1X,X,X,X,X/.^ D A Z F n n n m m b b b b b M ] ^.Q.",
"# q.&.O.O.@.@.@.@.@.@.@.@.@.@.@.+.+.+.@.U.<X6X5X6X5X5X4X4X2X2X2X2X1X1X1X,X,X,X,X,X,X].I./ S A F F n n m m b b b b b b M M ' ^.Q.",
"; u.@.O.@.O.+.@.@.@.@.+.+.@.+.+.+.+.+._ _ #.'.>X4X4X4X2X2X2X2X1X1X1X,X,X,X,X,X>X]./.^ A F Z F n n n m b b b v v b b b b M ` ~.Q.",
"# w.o._ O.O.+.+.+.+.+.+.+.+.+.+._ _ _ U ) U ) _ U.`.>X1X1X2X,X,X,X,X,X,X>X].W.I...Z Z Z c c c n b v b v v v v v v b b m M ` W.Q.",
". s.o.( O.O.+.+.+.+.+.+._ _ _ _ _ ) U U ) P P L L L o.&.I./.`.`.`.`./.;.] ^ Z g B c x c c c x x x x x v v v v v v v b m M ` W.Y.",
"4 d.o.o.O.O.O.+._ +._ _ ) ) U U ) U U P L L K K J J V V V V V B B B B N B a g g g k k k j j z z x x x x x x v v v v b m M `  .j.",
"6 a.( ( O._ _ _ _ ) ) ) ) U U P P U L K K J J V V V V B B B N N a a a a a g p a i i i f f d k j d j x j x x x x v x v b M '  .g.",
"6 A.( ( ( ) ( ( ) U ) P P P P L L K J J V V V V B N N N a a a a p p p p p p i i p y y i u s u s d d j j j z x x x v b b M `  .f.",
"6 a./ ( ( ( U ) P P L L L L K J J V V V B N N N N a p p p p p p i i y p u u y y y y y y u y y r s s d d j j k z j x v v M `  .p.",
"4 a./ / I I L I L L K J J J V V V N B N N a p p p p p p p p p y y y y y y y y y y y y y r y y y y u u s d d j j x x v v m ` C.0.",
"4 a./ H H I D D D K V V V V B N N N N N a p p p p p p y y i y s y y y y y y y y y y y y r y r y y y u u s s d j j x x b M ..A.= ",
"4 s...H H D D S C V B B B N N a N p a p p p i f i f s s s s d t i t u u r u r u r y y y r r r y y y y y u s d d j x x b M ' j.* ",
"4 w...A A S C C V B N B N a p p p p p f i f f f s s s t t t j t t j t t t t r r r r r r r r r y y y y y y s s d j x x v M ] s.* ",
"Y.R.] ^ A A Z B B N N a p p p p p i f f f d d t l l W E Q W W W W W W W Y E l l h t r r r r r r y y y y y s s d j x v b ` ;.R.f.",
"9 5.j.^ G n Z Z g g p p p p p i u f d t l E ! ! b.n.M.N.B.V.B.B.M.m.n.b.b.b.! Q W W l h r t r t r r y y y u d d j j b M ' Z.y.8.",
"4 1.y.%.G n c c k i i p i i d d j t E W { M.F.J.H.!.XX@X+X+X+XoX.X XK.H.F.n.w [ { { ! W E 2 h t t t r r s s d d z x M `  .u.r.,.",
"4 1.r.l.' b v z j f d f f f f t E W n.G. X+X%XOX].3X).&X*X*X&X%X$X#X+XoXXXZ.^.w { b.b.b.{ { Y l h r r t t d d z x b M ] d.r.e.* ",
"4 1.r.r.A.` b x j j j j f s l W m.J.OX%X*X*X*X!.>XrX!.%X*X&X&X%X%X$X#X@XoX].rX~.[ F.B.n.b.{ { [ E l h r t j z x v M ' A.r.e.r.* ",
"4 1.r.r.r.C.M b x x x k j E { G.oX&X*X*X*X*X*XZ.`.3X| OX&X&X%X%X$X$X#X#X.X!.7XW.w K.H.V.m.n.b.{ ! W l h j j x b M ' C.t.r.r.r.* ",
"4 1.r.r.r.t.A.M b v x v E b.}.$X&X*X*X*X*X*X*Xb.W.^.0 OX*X&X%X%X%X$X#X@X}. .`.| 0 }.K.F.V.M.n.n.b.b.b.E j l b ` ' C.t.r.r.r.r.* ",
"4 1.r.r.r.r.6.f.] M m v Q  X%X*X*X*X*X*X*X*X*Xw w w @ OX&X&X%X$X$X$X@X@X}.| | 0 0 }.K.H.F.M.M.M.M.n.b.{ x v ` ] e 9.r.r.r.r.r.* ",
"5 1.r.r.r.r.7.- 3 } ] M D.$X&X&X*X*X*X*X*X*X&Xw 0 0 @ OX&X%X&X$X$X#X@X@X}.w w @ 0 }.K.H.S.V.M.N.N.N.m.} ' %. .T X < 6.r.r.r.r.* ",
"4 1.r.r.r.6.< . 2 Y x./._.%X&X&X&X&X*X*X*X*X*Xw @ @ @ OX&X%X$X$X$X#X@X@X|.w @ X 0 }.J.H.S.N.N.N.N.B.F.Z./.v.R Y 1 - 7.r.r.r.r.* ",
"> 1.r.r.e.7.- + T ~ c.v. X%X%X%X&X&X&X&X*X&X*Xb.O O @ OX$X$X$X$X#X@X+XoX X0 X   w K.H.F.V.M.N.M.B.V.F.}.v.v.x.T 2 X < 6.r.e.r.* ",
"4 1.r.e.q.7 . 2 T ~ v.v.K.#X%X%X%X%X&X&X&X&X&XC.O   0 $X$X$X$X#X@X+XoXoX.X0     [ J.F.V.V.N.N.V.B.V.G.).v.v.c.R T + : 8.4.r.r.* ",
"4 1.r.r.7.8 : + T T ~ x.c.#X#X#X%X%X%X%X%X%X%X.X@   C.$X$X$X+X@X+XoXXXXX.X[   O V.F.V.N.N.M.N.B.V.F.J.c.x.x.~ Y 2 . 7 8.4.r.r.* ",
"4 1.r.e.e.7.< o 1 T Y Y Y @X@X#X#X#X%X$X%X%X%X#X_.Z.XX$X$X+X+XoXoXXX.X X XJ.C.B.F.V.N.N.M.M.N.V.F.F.).T T T T Y + < 8 5.r.r.r.* ",
"4 1.r.r.r.6.8 < o + Y T T M.OX+X@X@X@X#X#X#X#X@X#X#X+X+XoXoXXXXX.X X X}.K.J.F.F.V.M.M.M.M.N.N.V.F.J.B.T Y Y 2 X : 7 7.e.r.r.r.* ",
"4 <.r.r.r.e.5.8 < - X + 2 1 ).+X+X+X+X+X+X+X+X+XoXoXoXXXXX.X.X X}.}.J.J.F.F.B.M.n.n.n.M.M.N.V.F.H.).+ 1 1 + - : 7 9.4.r.e.r.r.= ",
"W.= 2.e.r.r.r.5.9.< < : . o f..X.XoXoXoXoXXXXX.XXX.X.X.X X X}.K.K.H.F.F.B.M.M.n.n.M.M.M.N.V.V.F.J.Y.: . o < 7 8.7.4.r.r.e.r.<.6 ",
"=Xe <.r.r.r.e.r.e.5.9.8.8.8.3.z.}. X.X.X.X.X.X.X X X}.}.K.K.J.H.F.S.B.N.M.n.n.n.M.M.M.N.V.V.F.H.L.4.7.< 8.8.7.6.e.e.r.r.r.e., T.",
"^.E.8.2.r.r.r.r.r.r.e.e.e.e.e.r.z.K.H.H.J.H.J.J.J.J.H.H.H.F.V.V.N.M.m.m.M.n.M.M.M.N.N.V.F.H.J.L.t.r.r.e.e.e.e.r.r.r.r.r.r.<.e -X",
"E.;XT., <.e.r.r.r.r.e.r.e.r.r.r.r.u.L.F.F.V.V.V.V.N.N.N.N.M.M.M.M.M.N.M.N.N.B.B.V.V.S.H.J.L.u.r.r.r.r.r.r.r.r.r.r.r.r.r.,.e =X;X",
";X;X;XT.9 = <.2.2.2.2.2.2.2.2.2.2.2.1.y.l.{.H.F.F.F.V.V.V.B.B.B.V.V.B.S.F.F.F.F.H.).|.{.l.2.2.2.2.2.2.2.2.2.2.2.e.2.= > P.-X;X;X",
";X;X;X;X-XT.4 & & & & & & & & & & & & & ; Y.q q j.Z.!.).).J.J.J.J.J.).).).).!.A.a.6 f.e & & & & & & & & & & & & & & e E.;X;X;X;X"
};
