/* XPM */
static char *_14f880da6034fc4e6919f660ecd148bqxI971VwfdMm5QwC[] = {
/* columns rows colors chars-per-pixel */
"64 64 100 2 ",
"   c #589028",
".  c #2B755C",
"X  c #1E6D6A",
"o  c #5C942C",
"O  c #578F28",
"+  c #0B1700",
"@  c #A7E077",
"#  c #80B850",
"$  c #306800",
"%  c black",
"&  c #639B35",
"*  c #245100",
"=  c #060A04",
"-  c #599334",
";  c #2A7976",
":  c #285700",
">  c #78B148",
",  c #7EB64D",
"<  c #76AE46",
"1  c #032230",
"2  c #085A7B",
"3  c #091103",
"4  c #A3DB73",
"5  c #F8F8F7",
"6  c #2E6702",
"7  c #2A745B",
"8  c #284111",
"9  c #60982F",
"0  c #6EA73E",
"q  c #0E1809",
"w  c #152E00",
"e  c #79B353",
"r  c #224901",
"t  c #538D2E",
"y  c #95CE65",
"u  c #7AB249",
"i  c #89C159",
"p  c #BFE79D",
"a  c #4D851D",
"s  c #72AC4D",
"d  c #385C19",
"f  c #C6E9A9",
"g  c #F3F7F1",
"h  c #316A00",
"j  c #679F37",
"k  c #193700",
"l  c #336B03",
"z  c #72AA42",
"x  c #1D4000",
"c  c #ADE280",
"v  c #CDEBB4",
"b  c #EBF4E4",
"n  c #B5E48E",
"m  c #8FC75F",
"M  c #D3EDBE",
"N  c #E0F1D2",
"B  c #136060",
"V  c #3B856D",
"C  c #6A8E4C",
"Z  c #527533",
"A  c #07485F",
"S  c #497B1E",
"D  c #19624B",
"F  c #81BA50",
"G  c #12677B",
"H  c #348381",
"J  c #4F9782",
"K  c #21706F",
"L  c #13534C",
"P  c #327C63",
"I  c #3A5426",
"U  c #9DD675",
"Y  c #277672",
"T  c #6B9C42",
"R  c #46899B",
"E  c #09404B",
"W  c #8BC064",
"Q  c #69A0AB",
"!  c #1D2319",
"~  c #0A5165",
"^  c #4C6736",
"/  c #314A1C",
"(  c #04364A",
")  c #315611",
"_  c #4D7E28",
"`  c #266B5B",
"'  c #176972",
"]  c #5B7F3C",
"[  c #085D81",
"{  c #073A4C",
"}  c #626D58",
"|  c #3C6E11",
" . c #407215",
".. c #021D28",
"X. c #6F716D",
"o. c #A5C58A",
"O. c #A7DB86",
"+. c #1D3E00",
"@. c #D1D2D0",
"#. c #CED1CB",
/* pixels */
"% = = = 3 3 3 3 3 3 3 3 3 3 3 3 3 3 3 3 { A q 3 3 3 = = = = = = = = = = = = = = = q A { = = = 3 = = = = = = = = = = = = = = % % ",
"= / Z ] C C C C C C C C C C C C C C C ] ` K C C C ] Z Z Z Z Z Z Z Z Z Z Z Z Z Z Z C K ` Z Z Z ] ] d d d d d ) r ) d ) r ) * w % ",
"= ^ 0 > y @ p v f c @ n p c @ U y y y u P H m y y F 0 0 0 0 0 0 0 0 0 0 0 0 0 0 < W H P 0 0 0 i u a S S S S  .r l S | r | ) w % ",
"= d   9 # 4 M 5 b n @ v N c @ m # F , & 7 ; e F # 0                             9 s ; .       z & l $ $ h h : + x h * + * w % % ",
"= d   9 # 4 M 5 b n @ v N c @ m # # , & 7 ; e # # 0                             9 s ; 7 O     z & l $ $ $ $ : 3 x h * + * w % % ",
"= d   9 # 4 M 5 b n @ v N c @ m # # , & 7 ; e # # 0                             9 s ; 7 O     z & l $ $ $ $ : 3 x h * + * w % % ",
"= d   9 # 4 M 5 b n @ v N c @ m # # , & 7 ; e # # 0                             9 s ; 7 O     z & l $ $ $ $ : 3 x h * + * w % % ",
"= d   9 # 4 M 5 b n @ v N c @ m # # , & 7 ; e # # 0                             9 s ; 7 O     z & l $ $ $ $ : 3 x h * + * w % % ",
"= d   9 # 4 M 5 b n @ v N c @ m # # , & 7 ; e # # 0                             9 s ; 7 O     z & l $ $ $ $ : 3 x h * + * w % % ",
"= d   9 # 4 M 5 b n @ v N c @ m # # , & 7 ; e # # 0                             9 s ; 7 O     z & l $ $ $ $ : 3 x h * + * w % % ",
"= d   9 # 4 M 5 b n @ v N c @ m # # , & 7 ; e # # 0                             9 s ; 7 O     z & l $ $ $ $ : 3 x h * + * w % % ",
"= d   9 # 4 M 5 b n @ v N c @ m # # , & 7 ; e # # 0                             9 s ; 7 O     z & l $ $ $ $ : 3 x h * + * w % % ",
"= d   9 # 4 M 5 b n @ v N c @ m # # , & 7 ; e # # 0                             9 s ; 7 O     z & l $ $ $ $ : 3 x h * + * w % % ",
"= d   9 # 4 M 5 b n @ v N c @ m # # , & 7 ; e # # 0                             9 s ; 7 O     z & l $ $ $ $ : 3 x h * + * w % % ",
"= d   9 # 4 M 5 b n @ v N c @ m # # , & 7 ; e # # 0                             9 s ; 7 O     z & l $ $ $ $ : 3 x h * + * w % % ",
"= d   9 # 4 M 5 b n @ v N c @ m # # , & 7 ; e # # 0                             9 s ; 7 O     z & l $ $ $ $ : 3 x h * + * w % % ",
"= d   9 # 4 M 5 b n @ v N c @ m # # , & 7 ; e # # 0                             9 s ; 7 O     z & l $ $ $ $ : 3 x h * + * w % % ",
"= d   9 # 4 M 5 b n @ v N c @ m # # , & 7 ; e # # 0                             9 s ; 7 O     z & l $ $ $ $ : 3 x h * + * w % % ",
"= d   9 # 4 M 5 b n @ v N c @ m # # , & 7 ; e F # 0                             9 s ; . O     z & l $ $ $ $ : 3 x h * + * w % % ",
"= d   9 # U M 5 b n @ v N c 4 m # # , & 7 ; e # # 0   O O O O O O O O O O O O O 9 s ; 7 O O   z & l $ $ $ $ : + x h * + * w % % ",
"{ D . P V J Q Q Q J J Q Q J J V V V V P ' G V V V P . . . . . . . . . . . . . . . V G ' . . . P P D D D D D D E L D L E L L ( ( ",
"A B X K ; H R R R H H R R H H ; ; ; ; K G G ; ; ; Y X X X X X X X X X X X X X X K Y G G X X X Y K B B B B B B A ~ B B A B ~ A A ",
"3 d t - e U v g N O.U f M O.U W e e e - 7 ; s e e T t t t t t t t t t t t t t t - s ; 7 t t t 0 & l 6 6 6 6 : q x 6 * q * w = = ",
"= d   9 # 4 M 5 b n @ v N c @ m # # , & 7 ; e F # 0                             9 s ; . O     z & l $ $ $ h : 3 x h * + * w % % ",
"= d   9 # 4 M 5 b n @ v N c @ m # # , & 7 ; e # # 0                             9 s ; 7 O     z & l $ $ $ $ : 3 x h * + * w % % ",
"= d   9 # 4 M 5 b n @ v N c @ m # # , & 7 ; e # # 0                             9 s ; 7 O     z & l $ $ $ $ : 3 x h * + * w % % ",
"= d   9 # 4 M 5 b n @ v N c @ m # # , & 7 ; e # # 0                             9 s ; 7 O     z & l $ $ $ $ : 3 x h * + * w % % ",
"= d   9 # 4 M 5 b n @ v N c @ m # # , & 7 ; e F # 0                             9 s ; . O     z & l $ $ $ $ : 3 x h * + * w % % ",
"= d O 9 , U M 5 b n @ v N c 4 m , , u & 7 ; e , , 0 O O O O O O O O O O O O O O o s ; 7 O O O z & l 6 6 6 $ : 3 x $ * + * w % % ",
"% w 8 8 I ^ } X.X.^ ^ } } ^ ^ I I I I / L B I I I / 8 8 8 8 8 8 8 8 8 8 8 8 8 8 8 I B L 8 8 8 / / w w w w w w = + w w = w + % % ",
"% % % % % % % % % % % % % % % % % % % % ( A % % % % % % % % % % % % % % % % % % % = A ( % % % % % % % % % % % % % % % % % % % % ",
"= % = q q q ! ! ! ! ! ! ! ! q q q q q q E A q q q q q q q q q q q q q q q q q q q q A E q q q + 3 3 3 3 3 = % = 3 = % = % % = = ",
"~ ..8 S _ & e o.@.#.o.W W W s T T T T t ` X _ T T T & _ S S S S S S S S S S S t & _ X ` S _ &  .: : : : : +.3 r : w + r 3 % ..~ ",
"2 1 8   o u y f 5 g p @ @ 4 i F F F , & . X - u F F > o                       j u - X .   o < a $ $ $ $ h r + : h k + * + % 1 2 ",
"2 1 8 O o > y f 5 g p @ @ 4 i # # # , & . X - u # # < o                       j > - X . O o < a 6 $ $ $ $ r + : $ k + * + % 1 2 ",
"2 1 8 O o > y f 5 g p @ @ 4 i # # # , & . X - u # # < o                       j > - X . O o < a 6 $ $ $ $ r + : $ k + * + % 1 2 ",
"2 1 8 O o > y f 5 g p @ @ 4 i # # # , & . X - u # # < o                       j > - X . O o < a 6 $ $ $ $ r + : $ k + * + % 1 2 ",
"2 1 8 O o > y f 5 g p @ @ 4 i # # # , & . X - u # # < o                       j > - X . O o < a 6 $ $ $ $ r + : $ k + * + % 1 2 ",
"2 1 8 O o > y f 5 g p @ @ 4 i # # # , & . X - u # # < o                       j > - X . O o < a 6 $ $ $ $ r + : $ k + * + % 1 2 ",
"2 1 8 O o > y f 5 g p @ @ 4 i # # # , & . X - u # # < o                       j > - X . O o < a 6 $ $ $ $ r + : $ k + * + % 1 2 ",
"2 1 8 O o > y f 5 g p @ @ 4 i # # F , & . X - u F F > o                       j > - X . O o < a 6 $ $ $ h r + : h k + * + % 1 2 ",
"2 1 8 t - s m p b b n U U U i e e e e - 7 X - s e e s - t t t t t t t t t t t & s - X . t - z a 6 6 6 6 6 r q : 6 k q * q % 1 2 ",
"[ ~ ~ X X Y H R R R H H H H ; ; ; ; ; K G G K Y ; ; Y X X X X X X X X X X X X K Y K G G X X Y X B B B B B B A B B ~ A B A A ~ [ ",
"[ A L 7 . V J J Q Q J J J J V V V V V P ' G . V V V V . . . . . . . . . . . . P V . G ' . . V ` D D D D D L E D D L E L E ( A [ ",
"2 1 8 O o < y f g g p @ @ 4 i , # # , & 7 X - > # # < o O O O O O O O O O O O j > - X . O o z a 6 $ $ $ $ r + : $ k + * + % 1 2 ",
"2 1 8 O o > y f 5 g p @ @ 4 i # # # , & . X - u # F > o                       j > - X . O o < a 6 $ $ $ h r + : $ k + * + % 1 2 ",
"2 1 8 O o > y f 5 g p @ @ 4 i # # # , & . X - u # # < o                       j > - X . O o < a 6 $ $ $ $ r + : $ k + * + % 1 2 ",
"2 1 8 O o > y f 5 g p @ @ 4 i # # # , & . X - u # # < o                       j > - X . O o < a 6 $ $ $ $ r + : $ k + * + % 1 2 ",
"2 1 8 O o > y f 5 g p @ @ 4 i # # # , & . X - u # # < o                       j > - X . O o < a 6 $ $ $ $ r + : $ k + * + % 1 2 ",
"2 1 8 O o > y f 5 g p @ @ 4 i # # # , & . X - u # # < o                       j > - X . O o < a 6 $ $ $ $ r + : $ k + * + % 1 2 ",
"2 1 8 O o > y f 5 g p @ @ 4 i # # # , & . X - u # # < o                       j > - X . O o < a 6 $ $ $ $ r + : $ k + * + % 1 2 ",
"2 1 8 O o > y f 5 g p @ @ 4 i # # # , & . X - u # # < o                       j > - X . O o < a 6 $ $ $ $ r + : $ k + * + % 1 2 ",
"2 1 8 O o > y f 5 g p @ @ 4 i # # # , & . X - u # # < o                       j > - X . O o < a 6 $ $ $ $ r + : $ k + * + % 1 2 ",
"2 1 8 O o > y f 5 g p @ @ 4 i # # # , & . X - u # # < o                       j > - X . O o < a 6 $ $ $ $ r + : $ k + * + % 1 2 ",
"2 1 8 O o > y f 5 g p @ @ 4 i # # # , & . X - u # # < o                       j > - X . O o < a 6 $ $ $ $ r + : $ k + * + % 1 2 ",
"2 1 8 O o > y f 5 g p @ @ 4 i # # # , & . X - u # # < o                       j > - X . O o < a 6 $ $ $ $ r + : $ k + * + % 1 2 ",
"2 1 8 O o > y f 5 g p @ @ 4 i # # # , & . X - u # # < o                       j > - X . O o < a 6 $ $ $ $ r + : $ k + * + % 1 2 ",
"2 1 8 O o > y f 5 g p @ @ 4 i # # # , & . X - u # # < o                       j > - X . O o < a 6 $ $ $ $ r + : $ k + * + % 1 2 ",
"2 1 8 O o > y f 5 g p @ @ 4 i # # # , & . X - u # # < o                       j > - X . O o < a 6 $ $ $ $ r + : $ k + * + % 1 2 ",
"2 1 8 O o > y f 5 g p @ @ 4 i # # # , & . X - u # # < o                       j > - X . O o < a 6 $ $ $ $ r + : $ k + * + % 1 2 ",
"2 1 8 O o > y f 5 g p @ @ 4 i # # # , & . X - u # # < o                       j > - X . O o < a 6 $ $ $ $ r + : $ k + * + % 1 2 ",
"2 1 8 O o > y f 5 g p @ @ 4 i # # # , & . X - u # # < o                       j > - X . O o < a 6 $ $ $ $ r + : $ k + * + % 1 2 ",
"2 1 8 O o > y f 5 g p @ @ 4 i # # # , & . X - u # # < o                       j > - X . O o < a 6 $ $ $ $ r + : $ k + * + % 1 2 ",
"2 1 8 O o > y f 5 g p @ @ 4 i # # # , & . X - u # # < o                       j > - X . O o < a 6 $ $ $ $ r + : $ k + * + % 1 2 "
};
