/* XPM */
static char *result[] = {
/* columns rows colors chars-per-pixel */
"64 64 243 2 ",
"   c #000100",
".  c #030B00",
"X  c #070A0A",
"o  c #021500",
"O  c #0C1403",
"+  c #031A00",
"@  c #0C1B02",
"#  c #151804",
"$  c #141E05",
"%  c #1A170D",
"&  c #221B0D",
"*  c #092100",
"=  c #052800",
"-  c #152302",
";  c #192304",
":  c #192806",
">  c #053500",
",  c #063A00",
"<  c #0B3C00",
"1  c #093B0B",
"2  c #153201",
"3  c #0D3E12",
"4  c #232E03",
"5  c #293706",
"6  c #2C3605",
"7  c #333B06",
"8  c #392D1B",
"9  c #2F371A",
"0  c #14372B",
"q  c #373C2F",
"w  c #473E18",
"e  c #503F18",
"r  c #463F20",
"t  c #084300",
"y  c #094C00",
"u  c #174504",
"i  c #095300",
"p  c #005C00",
"a  c #0A5C00",
"s  c #145700",
"d  c #0E5217",
"f  c #2B4400",
"g  c #2D4A00",
"h  c #334D00",
"j  c #3A4B0E",
"k  c #335100",
"l  c #395501",
"z  c #385B04",
"x  c #2A421F",
"c  c #38411D",
"v  c #0B6100",
"b  c #0C6D00",
"n  c #176B00",
"m  c #0C7400",
"M  c #0D7B00",
"N  c #187800",
"B  c #116A17",
"V  c #0C7114",
"C  c #296800",
"Z  c #3C6700",
"A  c #3C7400",
"S  c #396217",
"D  c #164A27",
"F  c #0B572B",
"G  c #16522C",
"H  c #0A5B34",
"J  c #274523",
"K  c #235033",
"L  c #136A2D",
"P  c #027A2E",
"I  c #177928",
"U  c #066A37",
"Y  c #017834",
"T  c #337330",
"R  c #4B4A19",
"E  c #5A4417",
"W  c #694918",
"Q  c #744C15",
"!  c #6B561D",
"~  c #7D5217",
"^  c #426A00",
"/  c #4C7802",
"(  c #537609",
")  c #574626",
"_  c #4C4B34",
"`  c #634F2D",
"'  c #6A5526",
"]  c #785A25",
"[  c #254546",
"{  c #107A45",
"}  c #2D7D55",
"|  c #3F7266",
" . c #586659",
".. c #855516",
"X. c #855719",
"o. c #8C5C1A",
"O. c #905F1A",
"+. c #94631C",
"@. c #9A691F",
"#. c #896628",
"$. c #916724",
"%. c #946D28",
"&. c #9B772A",
"*. c #866D3B",
"=. c #88703B",
"-. c #A06F22",
";. c #A67424",
":. c #A97625",
">. c #A97929",
",. c #B17D29",
"<. c #A47D34",
"1. c #897750",
"2. c #0F8D00",
"3. c #138200",
"4. c #168900",
"5. c #0F9400",
"6. c #109400",
"7. c #179800",
"8. c #1D9B00",
"9. c #16970B",
"0. c #0C8812",
"q. c #189019",
"w. c #298900",
"e. c #239C00",
"r. c #299900",
"t. c #00A600",
"y. c #00A900",
"u. c #0AA80B",
"i. c #01BB02",
"p. c #09B70D",
"a. c #01BC0B",
"s. c #04A819",
"d. c #15AD15",
"f. c #00B413",
"g. c #09B917",
"h. c #27A000",
"j. c #2BA200",
"k. c #32A600",
"l. c #39A100",
"z. c #36A800",
"x. c #3CAC00",
"c. c #35B00A",
"v. c #00872B",
"b. c #008D2A",
"n. c #009B25",
"m. c #00942B",
"M. c #018B33",
"N. c #068939",
"B. c #289130",
"V. c #15B328",
"C. c #21B639",
"Z. c #4A8A00",
"A. c #548301",
"S. c #588600",
"D. c #588B00",
"F. c #4B9B00",
"G. c #589600",
"H. c #679E00",
"J. c #689F00",
"K. c #6B920B",
"L. c #45A300",
"P. c #42AE00",
"I. c #58A900",
"U. c #45B100",
"Y. c #4AB300",
"T. c #51B600",
"R. c #5AB403",
"E. c #55B900",
"W. c #5CBC00",
"Q. c #53BA17",
"!. c #62A700",
"~. c #6BA500",
"^. c #64AB00",
"/. c #6EAC00",
"(. c #71AF00",
"). c #69B700",
"_. c #62BE00",
"`. c #73B300",
"'. c #77B900",
"]. c #74BC1D",
"[. c #4A912F",
"{. c #00C404",
"}. c #00CA00",
"|. c #02C109",
" X c #0DC814",
".X c #19C611",
"XX c #38C813",
"oX c #21C536",
"OX c #65C100",
"+X c #6BC500",
"@X c #73C400",
"#X c #7BC303",
"$X c #75CA00",
"%X c #7CCD00",
"&X c #74CB13",
"*X c #67C230",
"=X c #0F9142",
"-X c #2C8D52",
";X c #30B352",
":X c #38BC5D",
">X c #369570",
",X c #38B167",
"<X c #44926C",
"1X c #43B86A",
"2X c #2FC34C",
"3X c #3AC35C",
"4X c #B0961C",
"5X c #85BA12",
"6X c #BBA01C",
"7X c #A78628",
"8X c #BA852C",
"9X c #B9862C",
"0X c #B48830",
"qX c #C28C2F",
"wX c #C48E30",
"eX c #C69132",
"rX c #CB9533",
"tX c #CE9937",
"yX c #D49C36",
"uX c #D69E39",
"iX c #D89F38",
"pX c #DAA237",
"aX c #DCA936",
"sX c #D6A13C",
"dX c #D9A139",
"fX c #E3B331",
"gX c #84C900",
"hX c #85CD00",
"jX c #83D100",
"kX c #8CD600",
"lX c #8DD800",
"zX c #8CD409",
"xX c #87D010",
"cX c #F2CA25",
"vX c #AE8A4B",
"bX c #BDA066",
"nX c #B6A276",
"mX c #BEAA7B",
"MX c #C29A4E",
"NX c #CEA85A",
"BX c #C6A665",
"VX c #C8A866",
"CX c #C0AD7F",
/* pixels */
"p p p p p p p p p p p p p p p B | | B p p p a p p p p p v v v p p p p p p p p p a p p p p p L } } d p p p p p p p p p p p p p p ",
"t.t.y.t.y.y.t.t.t.t.t.t.t.t.5.s.,X,Xu.t.t.t.t.y.y.y.y.t.d 3 t 3 3 3 1 B u.t.y.t.y.y.y.t.y.u.C.,X;Xd.t.t.t.t.t.t.t.t.t.y.y.t.t.t.",
"}.}.}.}.}.}.}.}.}.}.}.}.}.}.}. X3X3X X}.}.}.}.}.g.0.0.0.S l l l k z z S q.0.0.s.}.}.}.}.}.}.oX3X2X X}.}.}.}.}.}.}.}.}.}.}.}.}.}.",
"{.a.a.a.a.a.{.{.}.}.}.}.}.{.{.g.:X,Xg.a.a.i.a.a.B : : 5 G.@X@X#X@X$X'.G.5 & 4 B p.a.|.|.{.a.C.3X2Xg.a.}.}.}.{.}.{.{.a.a.a.a.a.|.",
"n.m.M.M.M.v.n.f.a.{.{.a.f.n.m.N.>X>X=XN.I 3 3 u ( /./.^.l.r.e.e.e.e.r.l.^./././ u 3 3 I n.M.-X>X>XN.b.s.f.a.{.{.a.s.n.v.N.M.M.M.",
"{ U G D D D F P v.m.n.v.Y F G K | [ [ 0 S A.( A.F.U.x.l.s , > > > > , s z.x.P.L.A.S.( S 0 D [ | | K D U P b.n.n.v.U F D D D H U ",
"D 9 R e W e e 9 G F F D K q q q _ S l z Z.W.W.W.w.a i y o             o i a a w.E.W.W.Z.z z j  . ._ 8 9 x D F F D 9 e W W e R J ",
"e Q ..........Q E w r ) r 9 : : z ).$X).L.4.3.M > .   .                       > M 3.3.L.+X@X).z : : 9 W E e w w W Q ........~ W ",
"..o.o.o.o.o.o.o.X.8 % & j H.(./.I.r.e.e.s + + o .                             . o + + s e.e.r.I./.`.~.j & % 8 ~ X.o.o.o.o.o.o.o.",
"-.,.8X8X0X` 8 8 w ( D.D.F.x.P.x.w.< > > o                                             + > > < w.x.x.x.Z.S.D.( w 8 8 ` vX0X0X8X,.",
"wX<.1.*.*.R h k z I.W.W.L.v a a , .                                                         . , a a n L.W.OXI.Z h h R ] =.=.7XtX",
"eX` X X : F.@X@X_.w.3.3.a o   X                                                                   . o a 3.3.w.).@X@XG.: X X ` MX",
"eX` X X @ N e.e.4.> + + o                                                                             o + + > 4.r.e.N +   X ` yX",
"9X' # ^ A.u = > > a v v t .                                                                         . t v v a > = > u A.^ # ] tX",
">.` # Z.I.Z k g h s a a i , > > * .                                                           * > > > i v a a g h h ^ I.Z.% #.eX",
"%.) O N k.W.@X'.!.g : : < b m m i * o o .                                             . o o * i m m b < : - g ^.'.+XR.z.N O #.,.",
"O.E # G.+Xx.j.j.k.R.`.`.A.2 * * t b m m , . . . .                               . . . < m m b < * * 2 A.`.`.R.k.e.j.P.+XG.$ #.:.",
"%.Q # H.jX+XOXW.W.U.x.x.L.D.S.A.Z < > > y a v i =                             = i v a y > > < Z D.D.S.L.x.x.k.7.e.Y.+XhXH.$ %.,.",
",.#.# H.kXkXkXkX#Xj.5.5.k.jXlXkX~.l h f s a v a t > > > .             . = > > t a v a s h h k F.W.OXW.j.6.k.x.x.Y.%XlXkXJ.$ %.wX",
"qX#.% H.kXkXkXkX$Xj.5.5.z.%XlXkXlXhXhXgX/ 2 - - s m m m = + o o o o + = b M M i - - : A '.@X+Xz.7.e.h.e.j.OX$X$X%XkXlXkXJ.$ &.yX",
"MX1.$ H.kXkXkXkX%Xj.5.5.z.%XkXkXkXkXkXkXgX`.'.(.z * + = v M M M M M M a = @ * z /.'.).Y.h.h.8.7.7.T.$X%X+Xz.j.h.x.#XlXhXJ.; 1.NX",
"VX .$ H.hXkXkXkX$Xj.5.5.z.gXlXkXkXkXkXkXlXlXlXkX(.S.S./ u > > > > > , u / S.S.F.x.x.P.r.6.5.5.5.7.j.x.x.P.W.W.W.+XhXlXkXJ.% 1.CX",
"vX*.$ H.hXkXkXkX%Xj.5.5.z.hXkXkXkXkXkXkXlXkXkXkX$XW.W.R.Z k k h h k k Z R.OXW.x.7.5.6.6.6.6.6.6.7.j.P.x.P.E._.W.+XjXkXkXJ.; 1.vX",
"-.X.$ H.kXkXkXkX$Xj.5.6.z.%XkXkXkXkXkXkXkXkXlXhXU.7.e.k._.@X@X+X@X@X@XW.8.6.7.6.5.6.6.6.6.5.6.5.7.Y.$X$X+Xz.j.h.x.%XlXkXJ.$ %.qX",
"+.' % J.kXkXkXhX#Xj.5.5.z.%XlXlXkXkXkXkXkXkXkXjXP.8.W.+Xx.h.h.h.e.h.h.8.5.5.6.5.6.5.6.6.6.6.6.6.5.8.h.h.j.OX$X$X%XjXkXkXH.; #.>.",
"O.W $ J.kXkXkXkX%Xj.5.5.z.%XlXlXkXkXkXkXkXkXkXhXU.e.OXkX+XY.e.5.5.5.5.6.5.5.6.6.6.5.6.5.6.5.6.6.7.U.W.W.W.U.U.U.W.%XkXkXH.; #.;.",
"+.Q $ J.kXkXkXkX$Xj.5.6.z.hXlXkXkXkXkXkXlXlXlXjXP.8.OXlXlX%Xk.6.5.5.5.6.6.6.6.6.6.6.6.5.6.6.6.5.7.U.W.W.W.U.x.x.T.%XlXkX~.% #.;.",
"O.! % J.hXkXkXkX#Xj.5.6.z.%XkXkXkXkXkXkXlXlXlXjXP.8._.kXkX%Xk.5.5.5.6.6.5.6.6.5.6.5.6.6.6.5.6.6.6.8.j.j.z.W.$X+X$XjXlXkXH.$ #.;.",
"O.W % J.kXkXkXlX$Xj.5.6.z.%XlXkXkXkXkXkXkXkXlXjXU.e._.lXlX#Xk.5.6.6.6.6.6.5.6.6.5.6.6.6.6.6.6.6.8.T.$X$X+Xx.h.h.x.#XkXkXH.; #.;.",
"+.' # H.kXkXlXlX$Xj.5.6.z.jXkXkXkXkXkXkXkXkXlXjXP.8.OXkXkX%Xk.6.6.6.5.6.6.6.6.6.6.6.5.6.6.6.6.6.6.k.U.x.U.T.W.W.OXhXlXkXH.$ ] >.",
";.] O ^ D.'.lXlX%Xj.6.6.z.jXlXkXkXkXkXkXkXkXkXjXP.8.OXkXkX$Xk.6.5.6.5.6.6.5.5.6.5.6.6.6.6.6.6.6.6.k.x.x.x.W.W.W.+XjX'.G.^ O ] 9X",
",.<.' ] ! K.'.`.^.e.6.6.z.%XlXkXkXkXkXkXkXkXkXjXP.e.OXlXlX%Xk.5.6.6.6.6.6.6.6.6.6.6.5.6.5.6.6.6.7.T.$X$X+Xx.e.4.w.^.K.E e ) <.rX",
"wXuXdXdXtX%.5 - 2 N 2.6.l.%XlXlXkXkXkXlXlXkXlXjXU.8.OXkXkX%Xk.6.6.5.6.5.6.6.5.6.6.6.6.6.6.6.6.6.6.8.h.e.r.OX!.2 @ - ' tXuXsXsXyX",
"eXdXdXdXsX;.#   . = > > C gXlXlXlXkXkXlXkXkXlXhXU.8.OXkXkX$Xk.6.6.6.6.6.6.6.6.6.6.5.5.6.6.5.6.6.7.U.I.C < g 5 .     ] dXsXpXyXpX",
"eXuXdXuXsX&.% f g O     - / ( S.J.hXlXlXkXkXlXkXU.7.OXlXkX%Xk.6.6.6.6.5.5.6.6.5.6.6.6.5.6.6.6.m a A / -     O g f O #.pXuXuXpXyX",
"8XtXdXdXpX#.4 J.`.f $ $ # . . . f ~.`.`.gXkXlXjXU.8.OXkXlX$Xk.6.6.5.6.6.6.6.6.6.6.6.5.2.M M b = . . . @ ; # f `.H.4 #.pXuXpXpXeX",
"@.8XuXiXdX%.5 ~.kX'.(.(./ @   . O $ - 2 A.gXhX%XP.8.OXlXkX#Xk.6.6.6.6.6.6.5.6.6.5.2.2.a * + + .     # / /.`.'.hX/.4 #.pXpXpXrX9X",
"+.;.rXiXdX;.6 ~.kXlXlXlX).n a a , .     : h k k N e._.lXlX%Xk.5.5.5.6.6.6.6.6.b < > > +     . z A.C v r.U.%XlXkX~.4 $.pXuXuXwX;.",
"+.;.rXaXfX7X6 ~.kXkXlXkXOX8.6.6.4.z l l -       = a ^ D.gX#Xk.5.6.6.6.3.a a i >       + , , y Z.W.Y.P.P.Y.%XlXkX~.5 7XfXaXpXwX;.",
"-.qXyXfXcX6X7 ~.kXkXkXkXOX8.6.6.x.#XgXgX/ - $ $ O . . - D.^.r.M 3.3.M a o   . . o o + y 2.2.6.8.j.W.$X$X%XjXlXlX~.5 4XcXcXaXyX9X",
"8XrXsXfXcX6X5 ~.kXkXkXkXOX8.5.6.x.gXlXkX#X(.`.~.k .   . @ - @ + + + + o .   . > m M M 3.6.5.8.T.+XU.j.j.k.$XlXkX~.5 4XcXcXaXsXtX",
"eXsXuXsXaX<.5 ~.kXkXkXkXOX8.5.7.z.hXkXkXlXlXlXkX/.A.C i o             o i v a m 6.6.5.5.6.6.6.j.x.T.W.W.OXjXkXkX/.6 7XfXsXsXpXMX",
"nXnXmXmXCX1.5 ~.kXkXkXkXOX8.6.6.x.jXkXkXkXkXlXkXlXjXz.4.C k h g < > > i 2.6.6.6.6.5.5.5.6.6.7.j.U.T.W.W.OXjXkXkX~.5 1.CXmXmXCXCX",
"bXBXBXBXVX1.5 ~.kXkXkXkXOX8.5.6.x.jXlXkXkXkXkXkXlX%Xz.8.).kXjX@Xr.2.6.2.6.5.6.6.6.6.6.5.6.6.7.T.+XU.h.h.k.$XlXkX~.5 1.VXBXBXNXbX",
">.eXuXiXMX;.6 ~.kXkXkXkXOX8.5.7.z.hXlXkXkXkXkXkXlX%Xz.8.+XkXlX#Xj.5.6.6.5.6.6.5.6.6.6.6.6.5.6.8.j.W.$X$X%XjXlXkX~.6 &.sXuXuXuX0X",
"%.,.yXiXaX:.6 ~.kXkXkXkXOX8.5.6.x.hXkXkXlXkXkXkXlX%Xz.e.+XkXlX$Xh.5.6.6.6.6.6.6.6.5.6.5.6.6.7.U.W.Y.z.x.U.#XlXkX~.6 <.pXiXuXeX,.",
"O.-.rXiXiX<.6 ~.kXkXlXlXOX8.5.6.z.jXkXkXkXkXkXkXlXhXz.8.+XkXlX$Xh.5.5.5.6.6.6.6.6.5.6.6.6.6.7.U.W.Y.x.x.U.%XkXlX~.6 >.pXiXuXwX;.",
"O.:.tXiXpX0X7 ~.kXlXlXlXOX8.5.6.x.jXkXkXkXlXkXkXlX%Xz.8.+XkXlX$Xh.5.6.6.5.6.6.5.6.6.6.6.5.6.6.e.k.E.$X$X$XhXkXlX~.7 7XaXdXiXwX;.",
"O.;.rXiXpX9Xj ~.lXlXkXkX).8.6.6.x.%XlXkXkXkXkXkXkX%Xx.8.+XkXkX$Xh.5.6.6.6.6.6.6.6.6.6.6.6.6.7.T.+XU.j.h.z.$XlXkX~.7 4XfXpXuXwX;.",
"O.;.rXiXdX0Xf ~.kXkXkXkXOX8.5.7.x.jXlXkXkXkXkXkXlX%Xz.8.+XkXkX@Xh.5.5.6.6.5.6.6.6.6.5.6.6.6.7.j.x.T.OXW.OXjXkXkX~.5 &.aXpXyXwX;.",
"O.:.rXiXiX0X7 ~.kXkXkXlXOX8.5.6.x.%XkXkXkXkXkXkXlX%Xz.8.+XkXlX$Xh.5.5.6.6.5.6.5.5.6.6.6.6.6.7.j.x.T.W.OXOXjXkXkX~.4 %.pXiXiXwX;.",
"@.,.yXiXiX,.7 ~.kXkXkXkX+X8.6.6.x.jXlXkXkXkXkXkXlXjXz.8.+XkXkX$Xh.5.6.6.6.6.6.6.6.6.6.6.6.6.7.E.+XU.h.h.k.$XlXkX~.4 #.sXiXiXrX7X",
",.rXiXiXdX>.6 ~.kXkXkXkXOX8.5.6.x.jXkXkXkXkXkXkXlXhXz.8.+XlXlX$Xh.5.6.6.6.6.6.6.6.6.6.6.6.5.6.8.j.W.$X$X%XjXkXkX~.4 #.pXiXiXyXwX",
"qXyXiXiXsX%.5 ~.kXkXkXkXOX8.6.6.x.%XkXkXkXkXkXkXlX%Xz.8.+XkXlX$Xh.5.6.6.5.6.6.5.5.6.6.5.6.6.7.x.W.Y.x.x.Y.%XlXkX~.5 #.pXiXpXpXyX",
":.8XwXwXwX#.4 /.kXkXlXkXOX8.6.6.x.jXkXkXkXkXkXkXlXhXz.8.+XkXlX$Xh.5.6.6.6.6.6.6.6.6.6.6.6.6.7.U.W.U.x.x.U.%XkXlX~.4 ] wXqXwXqX8X",
"o.O.+.+.@.X.w K.gXzXlXlXOX8.5.7.x.%XkXkXkXkXkXkXlX%Xz.8.+XkXlX@Xh.5.6.6.5.6.6.5.6.6.5.6.6.6.7.8.j.W.$X$X$XkXzX5XK.w Q +.+.+.+.+.",
"Q Q ..........~ ! 5XzXzX+Xe.6.6.x.jXlXlXkXkXkXkXlX%Xz.e.+XkXlX$Xh.5.6.6.6.6.6.5.6.6.6.6.6.6.7.T.+Xx.h.r.l.%X].W Q ~ ..o.......Q ",
"x w E Q Q Q E 9 J T T [.[.9.6.9.x.zXlXzXkXkXkXkXlX%Xz.8.+XkXlX$Xh.5.6.5.5.6.6.6.6.6.6.6.6.6.6.k.U.W.R.T T T T D x w E W Q Q E c ",
"U H G x x x G L Y v.v.Y U I I I [.zXlXlXkXkXkXkXkXhXz.8.+XkXlX@Xh.5.6.6.6.6.6.6.6.6.6.4.6.6.9.B.B.[.[.T U Y v.v.P F D 9 9 J G U ",
"m.M.Y Y P P b.n.f.a.a.f.s.b.Y { <X*X&X&XxXkXkXkXlX%Xz.8.+XkXlX$Xh.5.6.6.5.6.6.5.6.6.6.9.q.q.B.>X>X=Xv.b.s.f.a.a.s.n.v.Y Y Y Y M.",
"a.f.f.f.f.f.a.{.}.}.}.}.|.|.f.V.,X1XC.g.Q.xXzXzXzX%Xz.8.+XkXkX$Xe.5.6.6.6.6.5.5.9.7.9.V.d.g.;X:X;XV.a.a.{.}.}.}.}.|.a.f.f.f.f.f.",
"}.}.}.}.}.}.}.}.}.}.}.}.}.}.}. X3X:X X}..XXXXXXX&XhXz.8.+XkXkX@Xr.5.6.6.6.6.6.d.d.p.|. X}.{.oX3X;X X}.}.}.}.}.}.}.}.}.}.}.}.}.}.",
"i.i.i.i.i.i.i.i.i.i.i.i.i.i.i.p.:X:Xp.i.a.a.a.i.c.Q.c.d.&XkXlX$Xh.6.6.9.u.u.u.p.i.i.i.i.i.i.C.;X;Xg.i.i.i.i.i.i.a.u.u.i.i.i.i.i.",
"V V V V V V V V V V V V V V V I <X<XI V V V V V P V V B ].lXlX$Xh.5.2.q.B V V B V V V V V V -X<X-XI V V V V V V V 3 d V V V V V "
};
