/* XPM */
static char *result[] = {
/* columns rows colors chars-per-pixel */
"64 64 175 2 ",
"   c #D8A038",
".  c #D89F38",
"X  c #DAA336",
"o  c #00CA00",
"O  c #D9A035",
"+  c #D9A138",
"@  c #8A5918",
"#  c #00C800",
"$  c #00C900",
"%  c #885817",
"&  c #875617",
"*  c #00C500",
"=  c #007A00",
"-  c #00BC00",
";  c #00AD00",
":  c #D9A037",
">  c #005800",
",  c #12501D",
"<  c #B4AE95",
"1  c #B3AF98",
"2  c #C0AA77",
"3  c #D4A243",
"4  c #D3A246",
"5  c #B9AC88",
"6  c #C0A976",
"7  c #CFA451",
"8  c #00C701",
"9  c #2A5544",
"0  c #F9D91F",
"q  c #DFAC32",
"w  c #DBA536",
"e  c #93BCED",
"r  c #DDA735",
"t  c #8C5C19",
"y  c #F1CB25",
"u  c #01AF18",
"i  c #B7822A",
"p  c #F5D222",
"a  c #DEAA34",
"s  c #006C3D",
"d  c #00BC0A",
"f  c #C28C2F",
"g  c #E9BD2B",
"h  c #E3B32F",
"j  c #C7A763",
"k  c #644112",
"l  c #D69E37",
"z  c #D7A13C",
"x  c #E7BA2D",
"c  c #00C303",
"v  c #EBC12A",
"b  c #AB7725",
"n  c #724913",
"m  c #C7A662",
"M  c #A47123",
"N  c #2F3516",
"B  c #035833",
"V  c #007E38",
"C  c #463813",
"Z  c #00B90E",
"A  c #00C106",
"S  c #008E33",
"D  c #774D16",
"F  c #F7D621",
"G  c #7E5015",
"H  c #95631D",
"J  c #F4D023",
"K  c #5A3E12",
"L  c #00A223",
"P  c #009231",
"I  c #007D42",
"U  c #00C503",
"Y  c #825316",
"T  c #00972C",
"R  c #064A2C",
"E  c #1A3D20",
"W  c #9D6B20",
"Q  c #C79131",
"!  c #015E37",
"~  c #513A11",
"^  c #B17D28",
"/  c #8F5E1A",
"(  c #064F2E",
")  c #E5B62F",
"_  c #00863B",
"`  c #02B514",
"'  c #EEC628",
"]  c #CC9533",
"[  c #009E27",
"{  c #0E472A",
"}  c #E1B031",
"|  c #3C3513",
" . c #00A81E",
".. c #8C8C88",
"X. c #33C054",
"o. c #037446",
"O. c #008636",
"+. c #CF9835",
"@. c #114224",
"#. c #6C4613",
"$. c #00743A",
"%. c #263719",
"&. c #0E391D",
"*. c #D7A03B",
"=. c #19371C",
"-. c #BD872D",
";. c #093F25",
":. c #895F26",
">. c #8D7C62",
",. c #157921",
"<. c #DBA839",
"1. c #1E3318",
"2. c #006539",
"3. c #D49C36",
"4. c #426867",
"5. c #567D88",
"6. c #0AC610",
"7. c #8FB5E6",
"8. c #ACB2AD",
"9. c #00A600",
"0. c #243C20",
"q. c #8B8479",
"w. c #8BAEDA",
"e. c #6787A7",
"r. c #8C714B",
"t. c #27503D",
"y. c #7F7464",
"u. c #4A9D96",
"i. c #12C61E",
"p. c #4FC07F",
"a. c #019C01",
"s. c #07880C",
"d. c #7D9FC9",
"f. c #BAAC87",
"g. c #6F91B3",
"h. c #9EB2C0",
"j. c #0D6F16",
"k. c #305F54",
"l. c #4A7577",
"z. c #3A6A5E",
"x. c #2D7A55",
"c. c #42C369",
"v. c #23C639",
"b. c #5C8794",
"n. c #1A5926",
"m. c #329579",
"M. c #4CC27A",
"N. c #0C874B",
"B. c #459E77",
"V. c #44B572",
"C. c #AA9874",
"Z. c #A6A392",
"A. c #3F7665",
"S. c #896534",
"D. c #266A3C",
"F. c #01A101",
"G. c #0B4510",
"H. c #B18E4F",
"J. c #735B3C",
"K. c #4B4F3C",
"L. c #1BB531",
"P. c #C0913D",
"I. c #8E6730",
"U. c #B5A072",
"Y. c #B68839",
"T. c #4DB885",
"R. c #0A5F10",
"E. c #025803",
"W. c #238A39",
"Q. c #23B34A",
"!. c #239C5F",
"~. c #9F793E",
"^. c #14A63F",
"/. c #D89F36",
"(. c #D8A300",
/* pixels */
"e e e e w.5.n.> > > > > > > > > > > > > R.5.R.> > > > > > > > > > > > > > > > > > > x.x.> > > > > > > > > > > > > E.k.e.7.e e e ",
"e e 7.e.D.s.; * * * * * * * * * * * * * 6.p.6.* * * * * * * * * * * * * * * * * * * X.X.* * * * * * * * * * * * * * a.,.4.d.e e ",
"e 7.b.s.; $ $ # # # $ $ $ $ # # # # # $ 6.p.6.$ # # # # # $ $ $ # # # # # # # # # $ X.X.o # # # # # $ $ $ $ $ # # # o c F.x.d.e ",
"e g.,.c $ # # # # # d Z Z d 8 $ # # # A ` T.` d # # # $ 8 d Z A # # # # # # # $ c d X.X.d c $ # # $ A Z Z Z A $ # # # $ o 9.z.7.",
"w.z.9.o # # # # d L _ I I V [ Z 8 A  .O.I u.N.O.L A 8 d [ V I S d 8 # # # $ 8 ` T V m.m.$.T ` U c u S I I I P u U # # # # * ,.e.",
"e.j.* # # # U  ._ o.2.{ 1.=.B V S O.! @.0.5.0.E ! O.S V B =.1.@.V L c $ c ` T $.( 1.4.4.1.( $.S S s { 1.=.B s I P Z # # # o 9.9 ",
"k.9.$ # # U L I 2.;.| k G D ~ E ;.@.| n Y ..:.n C &.;.E ~ D G k E B T L T $.R %.K G y.>.G K %.;.;.N k G D ~ 0.( o._ Z # # # * = ",
"t.; o # $ u I s 0.k Y % % % % n k #.& % :...:.% & #.k n % % % % n C ( ! ( %.K G @ % >.>.% @ D k k Y @ % % % D ~ ( o.S A # # $ = ",
"9 ; o # d S s 0.D @ t t t t % % @ @ % % :...I.% % @ @ % % t t @ % Y K C K G % % @ t >.>.@ % % @ @ % @ t t t @ & K R I  .8 # $ = ",
"9 ; o 8 T o.( ~ % H -.Q Q f M / % % % W P.Z.P.M @ % % / M f Q i W @ @ @ @ % % H b Q U.U.i / % % @ H ^ Q Q Q b t G %.s I ` $ $ = ",
"9 ; o 8 P B C Y % ^ + + + : l f i i i ] 3 1 4 +.i i i f 3.: +   +.i i i i i i Q l O 2 2 /.f i i i ] . + + + +.H & n E o.u $ $ = ",
"9 ; o 8 P R k @ & ^ +         + + + + : 3 1 4 : + + + +           + + + + + + +   O 6 2 O + + + +         + +.H % & N s u $ $ = ",
"9 ; o 8 P R k @ & ^ +         + w r X   3 1 4   w g h                   q v v h   O 6 2 O + r r X         + +.H & & N s u $ $ = ",
"9 ; o 8 [ B ~ & % M 3.        r y J x   3 1 4   x 0 J r               + ' 0 0 J a /.6 2 /.r y J x           f / % D 0.V Z $ $ = ",
"9 ; o $ Z V E D % / f         X } h a   3 1 4   q y g X                 ) J J g X O 6 2 O X } h a         l M % & ~ B [ 8 # $ = ",
"9 ; o # 8 L B C % % M l   . .   . .     3 1 4     w +   . .         +   + w r +   O 6 2 O   . .     .   + f / % D =.V d # # $ = ",
"9 ; o # $  .! | % & W l X a a X         3 1 4         X a a X     w g x + .       O 6 2 O         r a r + f @ @ n &._ A $ # $ = ",
"9 ; o # c T R K % @ ^   g p p g X       3 1 4       + g p p g + . ) F p q .       O 6 2 O       q y p y q ] H % G N s u # # $ = ",
"9 ; o # u s N Y % H ] w ' 0 0 y w       3 1 4       X y 0 0 y w . r ' g X         O 6 2 O       ) F 0 F ) . ^ @ @ k { S c # $ = ",
"9 ; o * P R K % & b /.O q g g q O O O O 3 1 3 O O O O q g g q O O /.X X /.O O O O O 6 2 O O O O X ) v x X O ] H & Y N s ` $ $ = ",
"4.L.v.v.!.k.J.r.r.H.j j m m m m j j j j j 8.6 j j j j m m m m j j j m m j j j j j m < < m j j j m m m m m j m r.r.r.K.x.Q.v.v.W.",
"b.V.c.c.B.l.y.q.q.C.5 5 5 5 5 5 5 5 5 5 5 h.< 5 5 5 5 5 5 5 5 5 5 5 5 5 5 5 5 5 5 f.8.8.f.5 5 5 5 5 5 5 5 5 5 q.q.q.l.u.V.c.c.B.",
"9 ; o # u s N Y % H ] :               O 3 1 4 O                                   O 6 2 O                   ^ @ % k { S c # $ = ",
"9 ; o # A P { K % @ ^ .                 3 1 4                           .         O 6 2 O               + ] W % Y N 2.u # # $ = ",
"9 ; o # $ u s N G & W l                 3 1 4                         r q         O 6 2 O               + f t % k ;.S c # # $ = ",
"9 ; o # # c P R k % W l   r g v ) +     3 1 4     + ) v g r         r y p }       O 6 2 O     a g v h + + f t Y N s u $ # # $ = ",
"9 ; o # # # u s N Y W l   g 0 0 p } .   3 1 4   . q p 0 0 v         r y p h .     O 6 2 O   + v 0 0 J a + f t k { S c # # # $ = ",
"9 ; o # # $ Z $.1.G W l   } y J ' r     3 1 4     r ' J y h           a } + w r w O 6 2 O     ) J J v w + f t K ( T 8 # # # $ = ",
"9 ; o # # #  .2.| Y W l     w r X       3 1 4       X r r               . q y J ' a 6 2 O     + r r X   + f t #.@.O.d $ # # $ = ",
"t.; o # # A O.@.#.@ M l                 3 1 4                             x 0 0 F h 6 2 O               + Q / & | !  .# # # $ = ",
"G.; o # $  .! | & / f :                 3 1 4                             w x v ) X 6 2 O                 l M % n &.O.A # # $ = ",
"n.; o $ d O.@.#.% M 3.                  3 1 4                                     O 6 2 O                 + f / Y C ! L # # $ = ",
"G.; o 8  .! | & % ^ +             .     3 1 4     .                       . .     O 6 2 O     .           + +.H % n @.O.d $ $ = ",
"&.; o 8 P R k @ & ^ +           w a +   3 1 4     a w                   X a q w   O 6 2 O   w a           + +.H & & N s u $ $ = ",
"t.; o 8 P R K @ & ^           X v J h   3 1 4   h J ' X               + g p p ' w /.6 2 O X ' J }         : ] H % Y N s u $ $ = ",
"9 ; o # u s N Y % H ] +       w y F x   3 1 4   x F y r               + ' 0 0 y r /.6 2 /.r y F )           ^ @ @ k { S A # $ = ",
"9 ; o # A P { K % @ ^ .         q ) X   3 1 4   X ) q               . . r x x q   O 6 2 O   q ) X       + ] W % G N s u # # $ = ",
"9 ; o # $  .! | % & W l           .     3 1 4     .                 a r   . .     O 6 2 O     .         + f @ @ n &._ A $ # $ = ",
"9 ; o # # L B C % % M l q v v q         3 1 4         q v v q   . } J y r         O 6 2 O       X x v x w f / % D =.V d # # $ = ",
"9 ; o $ d V E n % t f w y 0 0 y w       3 1 4       w y 0 0 y w . } p J a .       O 6 2 O       ) F 0 F ) 3.M & & ~ B [ 8 # $ = ",
"9 ; o 8 L B C & % M 3.+ x J p g X       3 1 4       + x J p g +   + } q           O 6 2 O       q y p y q   f / % D E V Z $ $ = ",
"9 ; $ U P R k t % ^ z *.z <.<.z *.z z z 4 1 4 *.z z *.z <.<.z *.z z *.*.z z z z z *.2 2 *.z z z z <.<.<.z z +.H @ % N s u $ # = ",
"b.V.M.M.u.5.q.....Z.< < < < < < < < < < 1 h.1 < < < < < < < < < < < < < < < < < < < 8.8.< < < < < < < < < < < ......5.u.T.M.M.B.",
"z.u i.i.^.o.K.S.S.~.7 7 7 7 7 7 7 7 7 7 7 8.m 7 7 7 7 7 7 7 7 7 7 7 7 7 7 7 7 7 7 7 5 f.7 7 7 7 7 7 7 7 7 7 H.I.S.J.t.N.L.i.i.,.",
"9 ; o $ Z V =.D % t f : : : : : : : : O 3 1 4 O : : : : : : : : : : :     : : : : O 6 2 O : : : : : : : : 3.M & & ~ B [ 8 # $ = ",
"9 ; o # 8 L B C & % M l     . .         3 1 4         . .               +         O 6 2 O       . .     + f / % D =.V d # # $ = ",
"9 ; o # $ d V E n % W l     a a w       3 1 4       w a a +         + ) v r       O 6 2 O     + a a w   + f t % C B L 8 # # $ = ",
"9 ; o # # 8 L B C & W l   h J p y r     3 1 4     r ' p J h       . a p 0 ) .     O 6 2 O     ) p p ' w + f t n E V Z $ # # $ = ",
"9 ; o # # $ Z $.1.G W l   g F 0 p q .   3 1 4   . q p 0 0 g         X x ' r . .   O 6 2 O   + v 0 0 J a + f t K ( P 8 # # # $ = ",
"9 ; o # # $ ` $.%.Y W l   w x g h +     3 1 4     + h g x w           + + X ) g h X 6 2 O     r x g }   + f t k R P U # # # $ = ",
"9 ; o # # 8 T ( K & W l                 3 1 4                           . ) F 0 F h 6 2 O               + f t G %.$.` $ # # $ = ",
"9 ; o # $ ` $.%.D @ i .                 3 1 4                             } J p y q 6 2 O               + ] W % K R T U # # $ = ",
"t.; o # c T ( ~ % W ] +               : 3 1 4 :                             r a r O 6 2 O                   i t G %.$.` # # $ = ",
"9 ; o 8 L o.=.D % b . + +   +.i b b b Q 3 1 4 Q b b b i +.  + l Q ^ b b b b b -.3.O 2 2 3.i b b b Q l + + + ] H & ~ B _ Z $ $ = ",
"9 ; o 8 [ I B C % / ^ -.-.i W t & & & H Y.Z.Y.W & & & t W i -.b H % & & & % & / M -.C.C.b t & & % / b -.-.-.M @ D =.o._ Z $ $ = ",
"9 ; o # A T s E #.@ @ @ @ @ % @ @ @ % % :...:.% % @ @ @ % @ @ % @ G C N C n & % % % >.>.% % @ @ @ % % @ @ @ @ Y C B I u # # $ = ",
"9 ; o # $ ` I s E ~ G % @ % & k ~ K Y % :...:.% Y K ~ k & % @ & k N B s ! E C n % % >.>.% % n ~ ~ D % @ % & #.| B o.T c # # $ = ",
"9 F.$ # # 8  .I s ( %.K n #.| @.( R N k D ..D k N { ( @.| #.n K @.2.L u L V B E C n y.y.n C E ( R %.~ n #.| @.! o.P d # # # * j.",
"..j.c # # # 8 u P I s ( &.@.2.S [ P s { { 5.{ { s P [ S 2.@.&.( S u 8 $ 8 d L V ! &.4.4.&.B V [ T $.( &.@.2.o._ [ d $ # # o a.k.",
"h.l.a.o # # # $ A u S _ _ S  .A $ c u P N.u.N.P u c $ A  .S _ T A $ # # # # # d L O.m.m.O.L Z # 8 ` T _ _ _ [ ` 8 # # # # A ,.g.",
"h.d.,.- o # # # # $ c A A A # $ # # $ c 6.p.i.c $ # # # # A A c # # # # # # # $ 8 A X.X.A 8 $ # # $ U A A A 8 $ # # # $ $ a.l.7.",
"w.e g.,.9.* $ $ $ $ $ $ $ $ $ $ $ $ $ $ 6.p.6.$ $ $ $ $ $ $ $ $ $ $ $ $ $ $ $ $ $ o X.X.$ $ $ $ $ $ $ $ $ $ $ $ $ $ o - s.A.w.e ",
"e e e g.z.j.9.- - - - - - - - - - - - - d p.Z - - - - - - - - - - - - - - - - - - - X.X.- - - - - - - - - - - - - - s.D.5.w.e e ",
"e e e e 7.e.9 , , , , , , , , , , , , , n.b.n., , , , , , , , , , , , , , , , , , , A.A., , , , , , , , , , , , , , l.d.e e e e "
};
