/* XPM */
static char *_9d673ada370446f891479e6be131768j20fNwjLAc6FqsFs[] = {
/* columns rows colors chars-per-pixel */
"64 64 231 2 ",
"   c #020201",
".  c #0B0805",
"X  c #0D0B09",
"o  c #120D04",
"O  c #180C0A",
"+  c #041502",
"@  c #1A110A",
"#  c #0C1315",
"$  c #171616",
"%  c #340D0F",
"&  c #26180C",
"*  c #33180C",
"=  c #3A1C0F",
"-  c #251A14",
";  c #371B13",
":  c #0A2908",
">  c #0C300E",
",  c #182B16",
"<  c #0E351E",
"1  c #143719",
"2  c #3B2A0F",
"3  c #272812",
"4  c #272F16",
"5  c #2C231A",
"6  c #382715",
"7  c #111626",
"8  c #1A222D",
"9  c #0C3D22",
"0  c #1B243E",
"q  c #2A2626",
"w  c #3C2F22",
"e  c #3A3629",
"r  c #303031",
"t  c #440C0D",
"y  c #4D0F11",
"u  c #5B0D11",
"i  c #421D11",
"p  c #5A1813",
"a  c #750512",
"s  c #6C1716",
"d  c #7D1A15",
"f  c #4A2A0F",
"g  c #51320F",
"h  c #5B370F",
"j  c #442913",
"k  c #512C15",
"l  c #4A3817",
"z  c #5A3712",
"x  c #6B2A18",
"c  c #663B14",
"v  c #773C19",
"b  c #7D3F1A",
"n  c #483A29",
"m  c #503828",
"M  c #094801",
"N  c #0F4F0E",
"B  c #0E590C",
"V  c #124016",
"C  c #17491D",
"Z  c #0D6001",
"A  c #0E6A01",
"S  c #146E13",
"D  c #0B4826",
"F  c #0B4D2A",
"G  c #1E472E",
"H  c #0B542B",
"J  c #0C5B2F",
"K  c #39472F",
"L  c #214434",
"P  c #0E692B",
"I  c #0F762C",
"U  c #107722",
"Y  c #117F27",
"T  c #0E6834",
"R  c #14773A",
"E  c #534116",
"W  c #6D4413",
"Q  c #744613",
"!  c #774914",
"~  c #794B14",
"^  c #78561A",
"/  c #7B691E",
"(  c #5A472C",
")  c #41433F",
"_  c #5B4932",
"`  c #6C5131",
"'  c #795C3A",
"]  c #142850",
"[  c #22294B",
"{  c #202B57",
"}  c #1B3367",
"|  c #27366C",
" . c #273776",
".. c #2E534C",
"X. c #2B694A",
"o. c #3B6264",
"O. c #594E40",
"+. c #5C5145",
"@. c #525355",
"#. c #774B49",
"$. c #7D6649",
"%. c #74655A",
"&. c #456A75",
"*. c #7B7364",
"=. c #717171",
"-. c #8D0F18",
";. c #B30D1A",
":. c #9B331B",
">. c #BD3F19",
",. c #C6001B",
"<. c #D8011C",
"1. c #D21E1B",
"2. c #E7001C",
"3. c #EB031D",
"4. c #E91C1C",
"5. c #D2361B",
"6. c #E7231C",
"7. c #EC381A",
"8. c #D32431",
"9. c #825017",
"0. c #865E1E",
"q. c #8A5819",
"w. c #925E1B",
"e. c #99651D",
"r. c #946E1C",
"t. c #A06A1F",
"y. c #A97F1B",
"u. c #AB4D38",
"i. c #976C29",
"p. c #A76F20",
"a. c #AB7523",
"s. c #B47B24",
"d. c #BA7F26",
"f. c #A47E3B",
"g. c #EC4D1B",
"h. c #E26B3F",
"j. c #8F7450",
"k. c #D1655D",
"l. c #138C03",
"z. c #149803",
"x. c #149C17",
"c. c #14931C",
"v. c #15A203",
"b. c #16AA06",
"n. c #18B303",
"m. c #19BD05",
"M. c #17B00E",
"N. c #18B30B",
"B. c #18B909",
"V. c #16A413",
"C. c #17AB11",
"Z. c #1EBF18",
"A. c #118623",
"S. c #1B9930",
"D. c #24B52E",
"F. c #19C204",
"G. c #218D4D",
"H. c #2EB643",
"J. c #39B35A",
"K. c #308864",
"L. c #41B769",
"P. c #A8881F",
"I. c #B78523",
"U. c #BE8427",
"Y. c #B18D34",
"T. c #D4AD1B",
"R. c #C48829",
"E. c #CC8D2A",
"W. c #CC9822",
"Q. c #CE902B",
"!. c #D2952A",
"~. c #D49B29",
"^. c #C89234",
"/. c #DBA626",
"(. c #E0AE23",
"). c #E5B621",
"_. c #EDC21E",
"`. c #F2CB1C",
"'. c #F7D31A",
"]. c #EAC831",
"[. c #9D8857",
"{. c #A6865A",
"}. c #A7905E",
"|. c #B89456",
" X c #948772",
".X c #B29963",
"XX c #AA9C73",
"oX c #C39440",
"OX c #C89950",
"+X c #E19E5A",
"@X c #C49B66",
"#X c #E68C6F",
"$X c #DCAE71",
"%X c #EBAD6A",
"&X c #EAB877",
"*X c #F0DA51",
"=X c #F5C27B",
"-X c #FCC67E",
";X c #2C3D82",
":X c #253B92",
">X c #1D4592",
",X c #2E428E",
"<X c #2B4497",
"1X c #314592",
"2X c #31479A",
"3X c #1F55A4",
"4X c #51738D",
"5X c #5D7EA4",
"6X c #3D8D84",
"7X c #6B8CBD",
"8X c #799DD1",
"9X c #7DA5E0",
"0X c #858687",
"qX c #929392",
"wX c #A59F83",
"eX c #ADA088",
"rX c #9E9FA0",
"tX c #8DA3B3",
"yX c #AAABAC",
"uX c #BABABC",
"iX c #C3AD93",
"pX c #EEB981",
"aX c #D1BFA1",
"sX c #EBB0B3",
"dX c #FECA81",
"fX c #D9C7A7",
"gX c #82ADE8",
"hX c #C8C9CA",
"jX c #D8D9DA",
"kX c #E3E4E5",
"lX c #F5F4F5",
/* pixels */
"gXgXgXgX8X&.C M M M M M M M M M M M M M N o.> + + + + + + + + : M M M M M M M M M M X.X.M M M M M M M M M M M M M M ..4X9X9XgXgX",
"gXgX9X4XJ S v.F.m.m.m.m.m.m.m.m.m.m.m.m.Z.G.> o u u s u t X   > M l.m.F.m.m.m.m.m.m.D.H.m.m.m.m.m.m.m.m.m.F.m.m.m.m.l.S ..8XgXgX",
"gX9X4XS v.F.F.F.F.F.F.F.F.F.F.F.F.F.F.m.N $ f :.5.7.7.7.5.:.d s * : M l.m.F.F.F.F.F.H.H.F.F.F.F.F.F.F.F.F.F.F.F.F.F.F.m.l.X.7XgX",
"gX5XS F.F.F.F.F.F.F.N.N.M.N.F.F.F.F.F.z.+ f 5.g.5.>.g.g.g.g.g.5.;.y   + Z F.F.F.B.Z.H.H.N.m.F.F.F.F.B.N.M.M.B.F.F.F.F.F.F.z...9X",
"8X..z.F.F.F.F.F.N.c.I P T P c.N.m.B.x.H i :.h.#Xk.@X#Xu.:.g.g.6.6.;.u O + l.m.C.A.P K.K.P A.C.B.m.V.Y T T T A.V.B.F.F.F.F.m.S 4X",
"4XB m.F.F.F.m.x.I T H 1 , , D P Y U D $ 5.5.yXsXkXlXsXqX$.5.g.7.6.6.6.-.t : B P 9 : ...., 9 P Y Y J 1 , , D H P A.M.F.F.F.F.z.L ",
"..z.F.F.F.m.c.T H < 3 g c W j , < 1 & . >.u.hXk.k.#X8.sXuXu.g.6.6.6.6.6.1.y X # 2 W %.$.c f 3 > < 3 g c W 2 , D T T M.F.F.F.B.A ",
"L v.F.F.F.V.T P , g W Q W Q Q h g * & O 5.@Xk.8.<.,.,.sXlX#Xg.6.6.6.6.6.6.;.t   2 h %.$.Q Q c g g c ! Q W Q W 2 D T Y B.F.F.F.A ",
"L v.F.F.N.Y J , c ! ~ ~ ~ ~ g f f @   X x j.u.8.8.8.8.sXlX%X7.6.6.6.6.6.6.4.-.- o f $.%.Q Q Q ! Q Q Q ! ~ ~ Q Q f 9 T V.F.F.F.A ",
"L v.F.F.A.T 9 2 Q 9.a.a.Q E o . % t p p p p s j.d #.#.sXhXu.7.6.6.6.6.6.6.6.2.;.. ; }.}.t.9.Q Q Q 9.p.d.d.d.e.Q c , H T C.F.F.A ",
"L v.F.m.A.D 2 W Q t.Q.l .   % s 5.5.7.7.g.g.>.x a u q @.+.x 1.6.6.4.6.6.6.3.3.,.y o ` }.E.s.a.t.p.U.Q.!.E.!.R.9.Q h , T V.F.F.A ",
"L v.F.m.A.9 g ! Q t.Q.    . i x :.5.5.4.4.4.6.4.3.<.-.a a d p i s 5.6.6.4.2.3.2.;.O e .XQ.Q.!.E.!.E.E.E.!.E.R.9.Q Q 3 J V.F.F.A ",
"L v.F.F.A.9 g Q Q e.Q..     X @ j x d -.-.;.<.2.2.2.2.2.3.;.y @ & -.1.6.6.3.2.2.<.y w .XQ.Q.!.!.!.E.E.!.Q.Q.R.9.Q Q 3 J V.F.F.A ",
"L v.F.F.c.D 2 Q Q e.R.j .           . q m _ u.-.-.;.,.,.,.;.,.-.p ; s ;.3.2.2.2.3.-.3 ' R.!._.`./.!.Q.E.Q.Q.s.~ Q c , I M.F.F.A ",
"L v.F.F.M.P 1 h Q ~ s.U.W E O       . {.&X-X@X' _ k p -.;.-.-.-.-.s t u -.<.2.2.3.;.O O E ^ /./.~.Q.Q.E.Q.E.e.Q Q 2 D A.F.F.F.A ",
"L v.F.F.F.c.D 2 Q Q 0.E.W.R.j & & X . @XdX$X&XdX.X_ w u.:.x -.-.-.:.-.- O ;.2.2.2.,.p % @ & a.E.Q.Q.Q.Q.Q.s.! Q h , I N.F.F.F.A ",
"L v.F.F.F.x.H 6 Q Q q.E.!.~.W.I.I.j . .X|.n j.&X&X&X.Xj.m j m d s s x &   t ,.2.2.2.<.<.;.% j Q.Q.!.~.~.E.s.! Q h , I B.F.F.F.A ",
"L v.F.F.m.A.9 f Q Q t.E.W.P.P.r.Y.( & j.$   j.dX-XdX_ . n &X@Xj.' O.0.5 X & p <.2.2.2.2.;.-.3 w.Q._.`._.~.R.9.Q c 3 H V.F.F.F.A ",
"L v.F.F.V.J 3 W Q 9.U.!.P.+ n ' |..X|.j._ m j.&XdX&Xn   n -X-X&XpXdX$X` & ; & y a a a a t u O O I.`.'.`.(.E.t.~ Q g < A.m.F.F.A ",
"L v.F.F.A.9 f Q Q e.E.R.r.& |.-X-X-XdX&X-X$X&XdXdX@X-   n -X-X-XdX&Xj.m p k & . O - - $ & % O o p.(.).(.!.W.U.9.Q W 3 J M.F.F.A ",
"..D.D.Z.G...( ' $.f.|.$.n @X%X-X-X-X-X-X-X=X-X-XdX{.-   m dXdXdXdXj.5 i f f & - j.$X@X|.@Xw   X f.|.|.|.|.|.|.' ' $.e X.S.D.D.A.",
"4XJ.J.J.K.o.%.*.*.[.XX_ n &X-X-X-X-XdX-X-X-X-X-X-X$X` 5 _ @X&XdX$X` i k p = m j.$X@X@X{.&X@X- O *.XXXXXXXXXXXX*.*.*.o.6XL.J.J.K.",
"G b.F.F.V.J , W Q 9.R.X _ %X-X-X-X-X-X-X-X-X-X-X-X-X&X{._ w |.dX@Xn = p f k [.=X{.e {.-X-X-Xj.. r.Q.Q.Q.!.E.t.Q Q g 1 A.F.F.F.A ",
"L v.F.F.n.A.1 f Q ! e.X m &X=X-X-X-X-X-X-X-X-XdXdX&X$X( $   ' -X&Xj.@ f f ' -X&X#.- j.dXdXdX{.o p.W.Q.Q.!.U.q.Q W 3 J C.F.F.F.A ",
"L v.F.F.F.V.J 3 c Q q.@ q &X-X-X-XdX-X-X-X-X&X@X@Xj.m @ & X ` +X%Xj.; m ' $X-X$Xe _ &XdX-XdXj.o t.E.E.!.Q.s.! Q g < A.B.F.F.F.A ",
"L v.F.F.F.B.A.9 g Q q.0.l {.$X-X&X-X-X-X-X$X$.- - - ; = ; % ( OX+X-X{.{.&X-X-X&Xj._ $XdXdX&Xj.o r.)./.E.Q.s.! W 3 H V.F.F.F.F.A ",
"L v.F.F.F.F.V.H 3 W q.Q.0.3 j.$X%X%X&X&X&Xj.j = i = j i i O ( +X%X-X=X=X-X-X-X-X&X}.j.-XdX.X- o T.'.`.~.!.s.! g < Y m.F.F.F.F.A ",
"L v.F.F.F.F.M.P , W q.E.U.r.l 6 n _ _ w w w i i i i i i - # 0.%X-X-X-X-X-X=X$X$X=X$X@X&X@Xn j y.).`.).!.E.s.! f D A.m.F.F.F.F.A ",
"L v.F.F.F.F.x.H 3 c q.E.E.Q.0.3 & & ; * * = i i i i i ; ; ( +X-X-X-X-XdX=Xj.n e j.$.+.w 5 6 s.Q.W.~.Q.Q.!.s.! z < I N.F.F.m.F.A ",
"G v.F.F.F.F.I 1 h Q w.E.Q.Q.E.e.O @ = i i i = % * * * O j +X-X-X-X-X-X$Xj.@ @ O $ $ 5 q e.U.Q.Q.W.E.Q.Q.Q.d.~ Q 3 F x.F.F.F.F.A ",
"> v.F.F.F.x.F 3 Q ~ s.Q.Q.Q.Q.s.& . - = = = & .     X X n %X-X&X&X&X&X_ X @ x k X 2 [.}.!.Q.Q.Q.Q.Q.Q.Q.Q.E.w.Q h > U B.F.F.F.A ",
"C v.F.F.N.I < h Q w.E.E.Q.Q.E.E.0.6 @ & & - O .   X 6 _ +.{.{.j.( n 5 $   o - 5 z r..X.XQ.Q.Q.Q.Q.Q.E.Q.E.Q.s.~ Q 6 F c.F.F.F.A ",
"> v.F.F.x.H 3 Q Q t.Q.Q.Q.Q.Q.Q.Q.s.t.^ i.*.^ 3 # X - ; ; & $ $ # . . . O & m w.I.E..X.XQ.Q.E.E.E.E.!.Q.Q.Q.R.9.Q c 1 U M.F.F.A ",
"1 v.F.m.A.< g Q W p.Q.Q.Q.Q.Q.Q.Q.~.!.R.^.O.& [ { q u ;.;.t [  .] t y u ,.-.& 6 p.E..X.XQ.Q.!.~.!.E.Q.Q.Q.Q.R.9.W v 3 J V.F.F.A ",
"9 v.F.F.A.9 f Q Q t.Q.Q.W.Q.Q.Q.).`./.Q.^.K ]  .7 % 1.<.a 8 ;X;X0 t u a 2.<.a . 2 R..X.XQ.!.).`./.E.Q.Q.Q.Q.d.9.Q W 3 J V.F.F.A ",
"L v.F.F.V.J , W Q 9.U.Q.Q.Q.Q.Q._.`./.d.l q | 0 ; -.,.a q  .,X[ $ u u a 3.2.,.-.6 E }..XE.~._.'.(.Q.Q.Q.E.Q.p.! Q g < Y B.F.F.A ",
"L v.F.F.m.A.< f Q Q t.E.Q.^.Q.Q././.I.l $ 0  .[ - % %   7 >X2X0 X u a d 2.2.2.2.-.& n j.E.Q.~./.Q.E.Q.Q.!.R.q.Q c 3 J V.F.F.F.A ",
"L v.F.F.F.x.F 6 Q Q q.E.Q.Q.Q.Q.E.E.l j.eXO.| 1X;X .7     ] 2X| 0 y ;.1.1.2.2.2.<.a X 5 d.Q.Q.Q.Q.Q.Q.Q.E.s.Q Q z > I B.F.F.F.A ",
"L v.F.F.F.c.D 6 Q Q w.E./.(.)./.E.R.6 [.*X_ { <X .} @.' i.@.| <X{ t <.-.s 2.2.<.;.-.O . Q R.E.Q.Q.(.).(.!.s.~ Q c > P N.F.F.F.A ",
"L b.F.F.N.P 1 z Q Q s.!._.'.'._.W.^ o r.Y... .,X7 E ].*X*XOX@.,X .- -.u ; a y p #.%.+.K 4 f Q E.(.`.'.`./.E.w.Q Q j D c.F.F.F.A ",
"L v.F.F.c.D 2 Q ! w.E.!.(._.`.W.j o o / 5 [ :X,X# ^ ].].]./.'  .2X[ @ u u 6 =.rXuXhXuXrX7X+.2 d.~._.`._.~.Q.s.^ Q c 1 P N.F.F.A ",
"L v.F.m.A.< g ~ ! t.E.E.^.~.!.s.o q $ $ 8 } ,X,X# ^ T.~.W.W.' ;X2X1X0 O O $ =.lXkXkXjXjXhXrX2 y.^.~.!.!.!.^.R.9.Q Q 3 J V.F.F.A ",
"4XJ.L.L.6X&.*.=.=.qXwXwXwXwXwX X@ @.=.$ { ,X2X1X{ e r.W.W.p...1X2X2X .7   q 0XkXkXkXkXkXjXyXq %. XeXwXwXwXwXeX=.=.=.&.6XL.L.L.K.",
"..V.Z.Z.S.T e ' ` i.oX^.^.oXoXf.o 0XkXr >X2X2X2X2X .e l _ .. .2X2X:X} @.=.0XkXkXkXjXkXjXjXuXq 6 Y.oXoXoXoXoXf.^ ` ` G R D.Z.Z.S ",
"L v.F.F.N.I , c Q ! s.E.Q.Q.!.y.o @.jX=.8  .2X<X2X2X .{ | <X2X2X2X .7 %.hXhXkXkXuX=.jXuX=.uX=.X i.E.E.Q.Q.E.q.Q Q f D c.m.F.F.A ",
"L v.F.F.m.c.D 2 Q Q w.E.E.E.E.I.@ $ yXhX$ ] 2X2X2X2X2X2X2X2X2X2X2X{ q  XuXhXkXkXyX$ =.yXq rXqX  6 E.Q.Q.Q.s.~ Q c , P N.m.m.F.A ",
"L v.F.F.F.N.P > h Q q.E.!.E.W.P.o . qXyX, 8 >X2X2X2X2X2X2X2X<X2X2X{ 5 4XrXqXkXkXyXX @.uX- %.qX# . ~.!.Q.Q.s.~ W 2 D c.m.F.F.F.A ",
"L v.F.F.F.F.c.D 6 Q q.E.E.(.`._.0.& 0XaX7Xr ] 3X2X2X2X<X<X:X<X<X:X .7 r [ r jXkXyXX ) hX7 ) qX# . `.).!.Q.s.~ z , I N.F.F.F.F.A ",
"L v.F.F.F.F.M.J , c q.E.E.(.'.'.`.z r @.qX=.8 8 >X3X3X>X:X:X:X:X:X:X] X . @ 7XkXhX0XrXhX0XqXqXo / '.`.~.E.s.! f 1 A.F.F.F.F.F.A ",
"L v.F.F.F.F.C.P 3 W q.E.Q.~.(.(./.^ j o q @.$   ] } >X>X>X3X:X:X:X:X] # @ r $.jXjXjXjXjXhXuX=.o P.)./.W.!.s.! g < A.m.F.F.F.F.A ",
"L v.F.F.F.F.A.< f Q q.E.Q.Q.Q.Q.Q.E.R.&       X - 6 0 ] ] ] [ ] ] 0 q $ r qXrXuXuXuXuXhXuX6X5 z d.Q.E.E.!.s.~ c , P C.F.F.F.F.A ",
"L v.F.F.F.C.P , h Q p.Q.Q.Q.Q.Q.Q.!.^ o X X X 6 v v j $ O       X % c j 5 @.yXhXhXhXuXrX%.j ^ E.Q.Q.Q.Q.!.U.q.Q g < A.F.F.F.F.A ",
"G v.F.F.B.A.D 2 Q q.R.Q.Q.Q.Q.Q.E.^ - ; k k k v v z 6 @ % 6 ; 6 f x c k k 6 +.@.@.@.e r W 0.E.Q.E.Q.E.E.Q.Q.t.~ c , P C.F.F.F.A ",
"L v.F.F.c.T , c Q e.Q.Q.Q.Q.R.t.e.& & c v v v v v x - X ; v v v v v x z x c ; @ O . X w d.p.e.e.e.d.E.E.!.Q.U.9.Q 6 D I M.F.F.A ",
"L v.F.F.c.T D 6 Q ~ t.a.s.p.q.~ c & k v v v v v v v - ; c v v v v v Q v v v v c k i - %.e.Q Q Q Q 9.w.s.a.s.w.Q c , T I M.F.F.A ",
"L v.F.F.B.A.P , h Q Q Q Q Q Q Q Q & k v v v v v v v & k b v v v v b v v v v v v x 2 q $.Q Q Q ~ Q Q Q ! Q ! Q v 2 D T V.F.F.F.A ",
"L v.F.F.F.C.T J , 2 c ~ ! Q Q g 2 @ ; v v v v v v v % & k v v v v v v v v v v v x j 5 j.Q Q h 2 j c Q Q Q Q z 6 D T A.m.F.F.F.A ",
"L z.F.F.F.F.V.T J D , f h h 3 1 9 : @ k v v v v v v * X - v v v v v v v v v v v z 2 , +.z 6 , D < , 2 c h 3 < F T Y N.F.F.F.m.B ",
"=.S B.F.F.F.m.V.A.T J 9 , 1 H Y c.U # # 6 j j i j j = X O 6 k k x x m z k k j = & . 8 ..> D P A.A.P 9 > < F T I c.N.F.F.F.F.l...",
"tXo.l.F.F.F.F.F.n.V.A.I I Y x.N.F.b.> e _ +.+.+.+._ +.$ $ +.+.+._ _ +.+.O.+.+.O.) > o.K.I c.M.F.m.M.A.I I I c.C.m.m.F.F.F.N.S 5X",
"tX8XB n.F.F.F.F.F.F.m.B.B.B.F.F.F.n.: j.eXaXaXfXfXaXiXq e aXfXeXeXwXiXeXwXiXfXfX X> D.H.B.F.F.F.F.F.B.B.m.m.F.F.F.F.F.F.F.l.o.9X",
"8XgX5XS z.B.F.F.F.F.F.F.F.F.F.F.F.F.M > , q q q O.1 1 : : K %.j.j. X XK 1 V K ) 1 M H.H.F.F.F.F.F.F.F.F.F.F.F.F.F.F.F.n.S X.8X9X",
"gXgXgX5X..S z.n.n.n.n.n.n.n.n.n.n.n.v.z.N 1 : : : Z z.z.z.Z > : > > : A v.z.Z > z.z.H.H.n.n.n.n.n.n.n.n.n.n.n.n.n.n.A J &.8XgXgX",
"gXgXgXgX9X4XL V V V V V V V V V V V V V C 4XC V V V V 1 V V V V V < V V V V V V V V o.X.V V V V V V V V V V V V V V o.8XgXgXgXgX"
};
