/* XPM */
static char *_e3c95c14340489fd1a4a2b20f4b567byMbQ00lsktwcRX9o[] = {
/* columns rows colors chars-per-pixel */
"64 64 60 1 ",
"  c #884008",
". c #080401",
"X c #954A10",
"o c #D88040",
"O c #5C2B05",
"+ c #30565C",
"@ c #F9A160",
"# c #B06020",
"$ c #894008",
"% c #AE5E1E",
"& c #AF6020",
"* c #DF8746",
"= c #804210",
"- c #465047",
"; c #3E6064",
": c #F49C5C",
"> c #A55F26",
", c #0D0805",
"< c #5A6053",
"1 c #F79F5E",
"2 c #8E450B",
"3 c #A35518",
"4 c #9E5215",
"5 c #B26121",
"6 c #C97434",
"7 c #994E13",
"8 c #92470D",
"9 c #C26E2E",
"0 c #A8591A",
"q c #A66B40",
"w c #AB5C1D",
"e c #8B4209",
"r c #E68E4D",
"t c #6E7063",
"y c #764116",
"u c #DA8241",
"i c #E08949",
"p c #231408",
"a c #AA6532",
"s c #B9692A",
"d c #8B4C19",
"f c #D37F41",
"g c #1F1004",
"h c #375B61",
"j c #915529",
"k c #49676A",
"l c #EB985B",
"z c #CE7A3C",
"x c #0C3D50",
"c c #854613",
"v c #185A71",
"b c #517175",
"n c #50584D",
"m c #64675A",
"M c #7D7E71",
"N c #43260F",
"B c #050A1E",
"V c #081D24",
"C c #314646",
"Z c #000055",
/* pixels */
"ZB,,,,,,,,,,,,,,,,,,xx,,,,,,,,,,,,,,,,,,,,xx,,,,,,,,,,,,,,,...BZ",
"Byqqqqqqqqqqqqqqqqqqk;qqqqqqqqqqqqqqqqqqqq;kqqqqqqqqqqqqqqjyOONB",
",q@@@@@@@@@@@@@@@@@@Mbl@@@@@@@@@@@@@@@@@@lbM@@@@@@@@@@@@@rz58$O.",
",q@@@@@@@@@@@@@@@@@1Mbl@@@@@@@@@@@@@@@@@@lbM1@@@@@@@@@@@@lz58$O.",
",q1:::::::::::::::::Mbl::::::::::::::::::lbM:::::::::::::r6%8$O.",
",ji*****************tbf*****************ifbt*************z5Xe$O.",
",juoooooooooooooooootkzoooooooooooooooooofktooooooooooooo60e $O.",
",d666666666666666666mk96666666666666666669km6666666666666s4e $O.",
".y55555555555555555#<;>555555555555555555>;<#5555555555553e  $O.",
".y&%%%%%%%%%%%%%%%%%<;>%%%%%%%%%%%%%%%%%%>;<%%%%%%%%%%%%%4$  $O.",
".OXXXXXXXXXXXXXXXXXXnhdXXXXXXXXXXXXXXXXXXdhnXXXXXXXXXXXXX8   $O.",
".O$$$$$$$$$$$$$$$$$ -+=$$$$$$$$$$$$$$$$$$=+- $$$$$$$$$$$$$$$$$O.",
"VNOOOOOOOOOOOOOOOOOOC+OOOOOOOOOOOOOOOOOOOO+COOOOOOOOOOOOOOOOOONV",
"vV,ppppppppggggggggpxxpppppppppppgggggggppxxppppppppppppppggg,Vv",
"B.Naaaaaaaajddddddd><;qaaaaaaaaaajddddddda;<aaaaaaaaaaaaa>dddN.B",
".Oaouuuuuuuz9555555smkfuuuuuuuuuozs555555sktouuuuuuuuuuuo655#dN.",
",dorrrrrrrrriz999999mkfrrrrrrrrrrr*z99999skturrrrrrrrrrrrz5##5y.",
".yf1111111111:*ooooftkf:@1111111111luoooozkti11111111111@u5##5y.",
".yz1@11111111:*ofofftkfl:1111111111luofofzkt*:11111111111u5##5y.",
".y6r:riiiiiiiio6ssssm;a6fiiiiiiiiii*f9sssa;ms6uiiiiiiiiiiz&&&#y.",
"x-mtMttttttttttm<<<<hv<<mtttttttttttt<<<<<vh<<tttttttttttm<<<<-x",
"x+kbbbk;;;;;;;;h++++vv++h;;;;;;;;;;;;+++++vv++;;;;;;;;;;;h+++++x",
",ysflfs>>>>>>>>d====-+y=7>>>>>>>>>>>>c===y+-=c4>>>>>>>>>>7====O,",
".y9*:*9########7$ $ -+=$24%#########w8$ $=+- $23#########3$ $$O.",
".y9uiu9########0X$  -+=  24%########%38  =+-   83&#######4$  $O.",
".y9oo6s#########4$  -+=$  24w########&7  =+-    83%######4$  $O.",
".y9ofsww########38$ -+=$   e40w######&42$=+-     23%#####4$  $O.",
".y9ofs77www%####%32 -+=$    eeXw%&####%42=+-     $23%w%&#4$  $O.",
".y9ofs7e8883&####%08-+=       e8X0#####%3c+-       288Xw#4$  $O.",
".y9ofs7    874w###&3n+=          X74%###w4h-          eX78   $O.",
".c6ofs7      e430##&<hdX2          233w##>;nXXe              $O.",
",ju*us7       ee7w#&<;>%7222$       ee4w#>;<%wX222$          $O.",
",jr:lo0ee       eXw&<;>#www08e$       e7%>;<&#www32e$        $O.",
",jr@:*s34e       eX0<;>####&037$       e7>;<&####%33X        $O.",
",jr@:*9#w478      $Xn;>#######0772      edh<&#######377e     $O.",
",jr@:*9##&&32       -h>%########%42     e=+<0#########wXe    $O.",
",jr@:*9####%32$     -+c0&########%4e     =+-Xw&########w7e   $O.",
".yo1:*9#####%32     -+=83#########%4e   $=+-eX0#########w7$  $O.",
".yf1:*9######%38    -+=$83#########w42  $=+- eX0#########4$  $O.",
".yzl:*9#######&38   -+=  833%#######%42  =+-  $X33%######4$  $O.",
".y9i:*9#########32$ -+=$ $$2300w&####%42$=+- $ $$8300w###4$ $$O.",
",ysflfs>>>>>>>>>>4c=-+y=====cccd>>>>>>>7=y+-======cccd>>>7====O,",
"x+kbbbk;;;;;;;;;;;++vv++++++++++;;;;;;;h++vv+++++++++h;;;h+++++x",
"x-mtMtm<<<<<<<<n----+v--n<<<<<<<<<<<<-----v+--<<<<<<<<<<<n----Cx",
".y9*l*9&&&&&&&%7    -+= 70&&&&&&&&&&w2   =+- e4w&&&&&&&&&4    O.",
".y9*l*9#######%4e   -+=$e7w#########wXe $=+- $e4%########4$  $O.",
".y9u*o9########w7$  -+=  eXw########&0X  =+-   24%#######4$  $O.",
".y9of9s#########4$  -+=$  e7w########&7  =+-    24%######4$  $O.",
".y9ofs00########0Xe -+=$   e743&#####&38$=+-     24w#####4$  $O.",
".y9ofs7X000w#####0Xe-+=$    $$X00%#####38=+-      e4000%#4$  $O.",
".y9ofs7e2224%%&##&wX-+=       e223%%###%0c+-       e2280%4$  $O.",
".y9ofs7    2X7w####0n+=$         8X7%###%3h- $        $8X2   $O.",
",dzofs7      e743##&<h772          2740##>;n77e              $O.",
",j*i*94         X0&&<;>&4XXXe        $70#>;<&%7XX8$          $O.",
",jr1:uw2e$      $80%<;>#%%%wX2e       $Xw>;<&#%%%082e        $O.",
",jr@:*s032$$     $83<;>####&w04e$$     eX>;<&####%w07e$      $O.",
",jr@:*9#%33X      $8n;>#######w348      edh<&#######0342     $O.",
",jr@:*9####3X$      -h4%#########48      =+n3&########%42    $O.",
",jr@:*9#####08$     -+c3%########&32$   $=+-80%########%42   $O.",
".yf1:*9#####&08$    -+=23%########%32$  $=+- 80&########w4$  $O.",
".yf1:*9######&0X    -+=$24&########%32  $=+- $83&########4$  $O.",
".y6r:*9########0X   -+=  274w#######%38  =+-   874%######4$  $O.",
".y9i:*9#########3Xe -+=$   e4333%####&38$=+-     24330&##4$  $O.",
".y9i:*9#########&02 -+=$    eee8w#####&4$=+-      eeeX%##4$  $O."
};
